<?xml version="1.0" standalone="no"?>
<!DOCTYPE svg PUBLIC "-//W3C//DTD SVG 20010904//EN"
 "http://www.w3.org/TR/2001/REC-SVG-20010904/DTD/svg10.dtd">
<svg version="1.0" xmlns="http://www.w3.org/2000/svg"
 width="499.000000pt" height="499.000000pt" viewBox="0 0 499.000000 499.000000"
 preserveAspectRatio="xMidYMid meet">
<metadata>
Created by potrace 1.11, written by Peter Selinger 2001-2013
</metadata>
<g transform="translate(0.000000,499.000000) scale(0.100000,-0.100000)"
fill="#000000" stroke="none">
<path d="M700 2495 l0 -2485 1795 0 1795 0 0 2485 0 2485 -1795 0 -1795 0 0
-2485z m3450 -5 l0 -2360 -1660 0 -1660 0 0 2360 0 2360 1660 0 1660 0 0
-2360z"/>
<path d="M852 2493 l3 -2338 1635 0 1635 0 3 2338 2 2337 -1640 0 -1640 0 2
-2337z m848 2235 c0 -5 -4 -8 -10 -8 -5 0 -10 10 -10 23 0 18 2 19 10 7 5 -8
10 -18 10 -22z m1591 -1 c-8 -8 -11 -7 -11 4 0 20 13 34 18 19 3 -7 -1 -17 -7
-23z m-1540 -64 c13 -16 12 -17 -3 -4 -10 7 -18 15 -18 17 0 8 8 3 21 -13z
m1454 -18 c-16 -14 -34 -25 -40 -25 -9 0 55 49 65 49 3 0 -8 -11 -25 -24z
m-1395 -21 c0 -2 -9 0 -20 6 -11 6 -20 13 -20 16 0 2 9 0 20 -6 11 -6 20 -13
20 -16z m1310 -28 c0 -2 -7 -7 -16 -10 -8 -3 -12 -2 -9 4 6 10 25 14 25 6z
m-1215 -26 c10 -11 16 -20 13 -20 -3 0 -13 9 -23 20 -10 11 -16 20 -13 20 3 0
13 -9 23 -20z m-70 -101 c4 -6 5 -12 2 -15 -7 -7 -37 7 -37 17 0 13 27 11 35
-2z m1331 -4 c-22 -17 -36 -19 -36 -7 0 14 12 22 34 22 21 -1 21 -1 2 -15z
m-1266 -24 c0 -5 -7 -12 -16 -15 -14 -5 -15 -4 -4 9 14 17 20 19 20 6z m609
-62 c11 -17 29 -36 42 -43 12 -6 26 -24 30 -40 12 -43 45 -73 96 -85 24 -7 55
-23 69 -36 24 -24 33 -65 14 -65 -5 0 -10 6 -10 13 0 23 -43 55 -82 62 -41 8
-98 62 -98 94 0 10 -11 23 -25 29 -14 7 -30 23 -37 37 -12 27 -38 34 -38 10 0
-8 -13 -24 -29 -36 -16 -12 -32 -32 -35 -44 -11 -43 -46 -74 -101 -90 -29 -9
-59 -23 -67 -32 -7 -9 -16 -52 -19 -97 -13 -169 -102 -276 -262 -316 l-45 -12
-4 -81 c-6 -103 -35 -172 -95 -227 -41 -39 -133 -90 -160 -90 -18 0 -16 -10
14 -76 25 -54 27 -69 27 -179 0 -140 -16 -194 -93 -309 -25 -38 -49 -74 -53
-80 -4 -6 -9 -23 -12 -37 -9 -40 -37 -68 -76 -75 l-35 -5 30 17 c38 22 54 43
55 71 0 13 18 46 40 75 127 166 161 356 95 522 -15 37 -25 72 -22 79 2 7 28
21 56 31 78 28 144 85 177 152 22 46 29 75 32 145 5 95 1 89 67 104 148 33
243 150 253 312 4 77 7 86 34 108 16 14 39 25 51 25 44 0 106 58 107 101 0 9
12 22 26 29 14 8 32 27 40 42 8 15 17 28 19 28 3 0 14 -14 24 -31z m578 -10
c2 -18 -1 -28 -7 -24 -6 3 -10 1 -10 -4 0 -6 7 -11 15 -11 8 0 15 -7 15 -15 0
-8 -9 -15 -20 -15 -22 0 -25 21 -14 79 8 37 16 33 21 -10z m-1176 1 c5 0 9 -7
9 -16 0 -10 -6 -14 -15 -10 -8 3 -15 1 -15 -4 0 -6 5 -10 10 -10 15 0 12 -27
-4 -33 -20 -8 -24 11 -13 63 6 25 12 37 14 28 3 -10 9 -18 14 -18z m1086 -12
c-3 -8 -6 -5 -6 6 -1 11 2 17 5 13 3 -3 4 -12 1 -19z m-2040 -30 c-3 -8 -6 -5
-6 6 -1 11 2 17 5 13 3 -3 4 -12 1 -19z m30 -15 c-3 -10 -5 -4 -5 12 0 17 2
24 5 18 2 -7 2 -21 0 -30z m976 -21 c-3 -12 -9 -22 -14 -22 -12 0 -11 7 3 30
15 24 19 21 11 -8z m1237 18 c0 -5 -2 -10 -4 -10 -3 0 -8 5 -11 10 -3 6 -1 10
4 10 6 0 11 -4 11 -10z m-2100 -10 c0 -5 -2 -10 -4 -10 -3 0 -8 5 -11 10 -3 6
-1 10 4 10 6 0 11 -4 11 -10z m1930 -16 c0 -8 -4 -14 -10 -14 -5 0 -10 9 -10
21 0 11 5 17 10 14 6 -3 10 -13 10 -21z m860 22 c0 -3 -4 -8 -10 -11 -5 -3
-10 -1 -10 4 0 6 5 11 10 11 6 0 10 -2 10 -4z m-2040 -26 c0 -5 -4 -10 -10
-10 -5 0 -10 5 -10 10 0 6 5 10 10 10 6 0 10 -4 10 -10z m2131 -17 c-12 -20
-14 -14 -5 12 4 9 9 14 11 11 3 -2 0 -13 -6 -23z m-881 -13 c-20 -13 -30 -12
-30 1 0 5 5 7 10 4 6 -3 10 2 10 11 0 14 3 15 12 6 10 -10 10 -15 -2 -22z
m-2090 0 c6 -11 8 -20 6 -20 -3 0 -10 9 -16 20 -6 11 -8 20 -6 20 3 0 10 -9
16 -20z m886 4 c17 -14 17 -15 1 -10 -10 3 -23 6 -28 6 -5 0 -9 5 -9 10 0 14
13 12 36 -6z m-839 -16 c-3 -8 -6 -5 -6 6 -1 11 2 17 5 13 3 -3 4 -12 1 -19z
m-17 -24 c0 -3 -7 -12 -15 -21 -20 -19 -32 -10 -14 11 14 15 29 21 29 10z
m850 -5 c0 -4 -13 -9 -30 -11 -21 -3 -27 -1 -20 7 10 12 50 15 50 4z m1254 -9
c6 -6 7 -10 0 -10 -6 0 -15 5 -22 12 -9 9 -12 9 -12 -1 0 -7 -4 -9 -10 -6 -5
3 -10 10 -10 15 0 11 40 4 54 -10z m806 10 c0 -5 -4 -10 -10 -10 -5 0 -10 5
-10 10 0 6 5 10 10 10 6 0 10 -4 10 -10z m-1990 -44 c0 -5 -7 -3 -15 4 -8 7
-12 17 -9 22 7 10 24 -9 24 -26z m1071 1 c-8 -8 -11 -7 -11 4 0 20 13 34 18
19 3 -7 -1 -17 -7 -23z m949 23 c0 -5 -4 -10 -10 -10 -5 0 -10 5 -10 10 0 6 5
10 10 10 6 0 10 -4 10 -10z m-2890 -20 c0 -5 -7 -7 -15 -4 -8 4 -15 1 -15 -5
0 -6 -7 -11 -15 -11 -21 0 -19 18 3 23 30 8 42 7 42 -3z m2838 4 c12 -4 22
-10 22 -15 0 -13 -23 -10 -44 6 -21 16 -15 18 22 9z m-2688 -24 c0 -5 -5 -10
-11 -10 -5 0 -7 5 -4 10 3 6 8 10 11 10 2 0 4 -4 4 -10z m2515 0 c3 -5 -1 -10
-10 -10 -9 0 -13 5 -10 10 3 6 8 10 10 10 2 0 7 -4 10 -10z m265 -72 c0 -12
-1 -19 -3 -17 -2 2 -11 17 -21 32 -17 28 -17 28 3 17 12 -6 21 -20 21 -32z
m-3046 10 c-8 -27 -12 -33 -19 -27 -7 8 7 49 17 49 5 0 6 -10 2 -22z m2876 12
c0 -5 -4 -10 -10 -10 -5 0 -10 5 -10 10 0 6 5 10 10 10 6 0 10 -4 10 -10z
m-1080 -51 c0 -54 34 -131 79 -181 45 -51 144 -108 186 -108 40 0 49 -16 51
-88 5 -168 81 -265 258 -326 12 -4 16 -12 12 -24 -3 -9 -17 -51 -32 -92 -24
-68 -26 -85 -21 -175 3 -65 12 -118 25 -152 22 -58 84 -164 106 -183 8 -6 22
-34 31 -61 19 -55 43 -77 98 -86 25 -4 44 -14 54 -29 8 -13 29 -28 47 -32 40
-11 38 -23 -8 -45 -20 -10 -39 -24 -42 -32 -4 -8 -16 -15 -28 -15 -19 1 -18 3
12 30 18 17 39 30 48 30 23 0 11 24 -13 28 -11 2 -31 14 -44 28 -12 13 -28 24
-36 24 -7 0 -30 7 -51 16 -37 14 -62 46 -62 80 0 8 -18 38 -39 67 -107 143
-148 298 -118 443 9 40 25 90 37 113 l21 42 -38 15 c-112 43 -163 85 -203 168
-25 51 -32 78 -35 142 l-3 79 -74 25 c-126 43 -196 117 -224 239 -17 68 -19
123 -4 101 5 -8 10 -27 10 -41z m-1739 8 c-8 -8 -11 -7 -11 4 0 20 13 34 18
19 3 -7 -1 -17 -7 -23z m899 13 c0 -5 -9 -14 -20 -20 -22 -12 -27 -1 -8 18 14
14 28 16 28 2z m1151 -12 c11 -11 19 -23 19 -26 0 -9 -44 25 -48 36 -6 19 9
14 29 -10z m869 6 c0 -8 -4 -12 -10 -9 -5 3 -10 10 -10 16 0 5 5 9 10 9 6 0
10 -7 10 -16z m-2815 -32 c-6 -7 -34 11 -29 19 3 5 11 3 19 -4 7 -6 12 -13 10
-15z m215 7 c0 -5 -4 -9 -10 -9 -5 0 -10 7 -10 16 0 8 5 12 10 9 6 -3 10 -10
10 -16z m266 -6 c-10 -10 -19 5 -10 18 6 11 8 11 12 0 2 -7 1 -15 -2 -18z
m224 7 c-24 -15 -37 -11 -16 5 11 8 22 12 25 9 3 -3 -1 -9 -9 -14z m1538 2 c6
-18 -15 -14 -22 4 -4 10 -1 14 6 12 6 -2 14 -10 16 -16z m258 -9 c-10 -10 -19
5 -10 18 6 11 8 11 12 0 2 -7 1 -15 -2 -18z m-481 -1 c-3 -3 -11 0 -18 7 -9
10 -8 11 6 5 10 -3 15 -9 12 -12z m-1721 -28 c22 -9 10 -24 -20 -24 -25 0 -33
15 -11 23 6 3 13 6 14 6 1 1 8 -2 17 -5z m122 -16 c-3 -13 -6 -26 -6 -30 0 -5
-4 -8 -10 -8 -5 0 -7 6 -4 14 3 8 -4 16 -18 20 -22 7 -22 7 -3 16 36 15 48 12
41 -12z m1909 13 c19 -8 19 -8 -2 -15 -13 -4 -23 -15 -23 -24 0 -13 -2 -13
-15 4 -29 39 -11 55 40 35z m125 -6 c0 -8 -4 -15 -10 -15 -5 0 -11 -8 -11 -17
-1 -17 -2 -17 -6 -1 -2 9 -14 20 -26 24 -21 7 -22 7 -2 15 32 12 55 10 55 -6z
m-2530 -20 c10 -13 9 -15 -8 -15 -15 0 -20 5 -16 15 4 8 7 15 9 15 1 0 8 -7
15 -15z m170 11 c0 -11 -19 -15 -25 -6 -3 5 1 10 9 10 9 0 16 -2 16 -4z m2020
-6 c0 -5 -2 -10 -4 -10 -3 0 -8 5 -11 10 -3 6 -1 10 4 10 6 0 11 -4 11 -10z
m520 0 c0 -5 -2 -10 -4 -10 -3 0 -8 5 -11 10 -3 6 -1 10 4 10 6 0 11 -4 11
-10z m-1969 -23 c-13 -13 -26 -3 -16 12 3 6 11 8 17 5 6 -4 6 -10 -1 -17z
m1393 14 c3 -5 -1 -11 -9 -15 -9 -3 -15 0 -15 9 0 16 16 20 24 6z m755 -10
c10 -17 8 -18 -13 -8 -14 7 -22 15 -20 19 9 14 23 9 33 -11z m-129 5 c0 -3 -4
-8 -10 -11 -5 -3 -10 -1 -10 4 0 6 5 11 10 11 6 0 10 -2 10 -4z m-2465 -24
c-3 -3 -11 0 -18 7 -9 10 -8 11 6 5 10 -3 15 -9 12 -12z m252 2 c-3 -3 -12 -4
-19 -1 -8 3 -5 6 6 6 11 1 17 -2 13 -5z m2280 -16 c-3 -8 -6 -5 -6 6 -1 11 2
17 5 13 3 -3 4 -12 1 -19z m-2697 -12 c0 -11 -19 -15 -25 -6 -3 5 1 10 9 10 9
0 16 -2 16 -4z m2020 -6 c0 -5 -2 -10 -4 -10 -3 0 -8 5 -11 10 -3 6 -1 10 4
10 6 0 11 -4 11 -10z m600 6 c0 -3 -4 -8 -10 -11 -5 -3 -10 -1 -10 4 0 6 5 11
10 11 6 0 10 -2 10 -4z m-2823 -83 c-2 -16 -4 -3 -4 27 0 30 2 43 4 28 2 -16
2 -40 0 -55z m243 51 c0 -8 -5 -12 -10 -9 -6 4 -8 11 -5 16 9 14 15 11 15 -7z
m70 6 c0 -5 -2 -10 -4 -10 -3 0 -8 5 -11 10 -3 6 -1 10 4 10 6 0 11 -4 11 -10z
m295 0 c3 -6 -1 -7 -9 -4 -18 7 -21 14 -7 14 6 0 13 -4 16 -10z m75 0 c0 -5
-4 -10 -10 -10 -5 0 -10 5 -10 10 0 6 5 10 10 10 6 0 10 -4 10 -10z m70 0 c0
-5 -5 -10 -11 -10 -5 0 -7 5 -4 10 3 6 8 10 11 10 2 0 4 -4 4 -10z m1515 1 c3
-5 1 -12 -5 -16 -5 -3 -10 1 -10 9 0 18 6 21 15 7z m75 -1 c0 -5 -4 -10 -10
-10 -5 0 -10 5 -10 10 0 6 5 10 10 10 6 0 10 -4 10 -10z m65 0 c-3 -5 -11 -10
-16 -10 -6 0 -7 5 -4 10 3 6 11 10 16 10 6 0 7 -4 4 -10z m295 0 c0 -5 -4 -10
-10 -10 -5 0 -10 5 -10 10 0 6 5 10 10 10 6 0 10 -4 10 -10z m-2683 -22 c-3
-8 -6 -5 -6 6 -1 11 2 17 5 13 3 -3 4 -12 1 -19z m2760 16 c-3 -3 -12 -4 -19
-1 -8 3 -5 6 6 6 11 1 17 -2 13 -5z m135 -34 c2 -22 0 -40 -4 -40 -5 0 -8 6
-8 14 0 8 -7 17 -16 20 -15 6 -15 8 2 26 10 10 20 19 20 19 1 1 4 -17 6 -39z
m-2792 9 c0 -6 -7 -17 -15 -25 -11 -11 -12 -21 -5 -40 7 -17 7 -23 0 -19 -6 3
-10 13 -10 21 0 8 -5 14 -11 14 -8 0 -9 4 0 13 6 8 8 17 5 20 -9 9 5 27 22 27
8 0 14 -5 14 -11z m41 -42 c-10 -9 -11 -8 -5 6 3 10 9 15 12 12 3 -3 0 -11 -7
-18z m-31 -11 c0 -3 -4 -8 -10 -11 -5 -3 -10 -1 -10 4 0 6 5 11 10 11 6 0 10
-2 10 -4z m270 0 c0 -3 -4 -8 -10 -11 -5 -3 -10 -1 -10 4 0 6 5 11 10 11 6 0
10 -2 10 -4z m190 -11 c0 -8 -2 -15 -4 -15 -2 0 -6 7 -10 15 -3 8 -1 15 4 15
6 0 10 -7 10 -15z m1837 9 c-3 -3 -12 -4 -19 -1 -8 3 -5 6 6 6 11 1 17 -2 13
-5z m193 -3 c0 -6 -4 -12 -8 -15 -5 -3 -9 1 -9 9 0 8 4 15 9 15 4 0 8 -4 8 -9z
m280 -1 c12 -8 11 -10 -7 -10 -13 0 -23 5 -23 10 0 13 11 13 30 0z m-2905 -9
c-6 -11 24 -43 34 -36 6 3 11 0 11 -9 0 -8 2 -20 5 -28 3 -7 -8 -20 -25 -30
-27 -15 -45 -9 -20 7 17 10 11 51 -10 70 -24 21 -25 32 -5 32 8 0 12 -3 10 -6z
m3029 -6 c-6 -16 -44 -41 -44 -29 0 5 40 43 47 44 1 0 0 -7 -3 -15z m-2894
-45 c0 -5 -7 -7 -15 -4 -8 4 -12 10 -9 15 6 11 24 2 24 -11z m25 10 c3 -5 1
-10 -4 -10 -6 0 -11 5 -11 10 0 6 2 10 4 10 3 0 8 -4 11 -10z m2735 -2 c0 -9
-23 -16 -37 -10 -22 8 -14 20 12 18 14 0 25 -4 25 -8z m110 -65 c0 -8 -9 -7
-28 4 -26 15 -28 19 -18 45 l10 28 18 -32 c9 -18 17 -38 18 -45z m-2760 37 c0
-5 -4 -10 -10 -10 -5 0 -10 5 -10 10 0 6 5 10 10 10 6 0 10 -4 10 -10z m130
-4 c0 -8 -6 -16 -14 -19 -10 -4 -12 0 -9 14 6 22 23 26 23 5z m253 -5 c3 -14
1 -18 -9 -14 -8 3 -14 11 -14 19 0 21 17 17 23 -5z m1777 10 c0 -6 -4 -13 -10
-16 -5 -3 -10 1 -10 9 0 9 5 16 10 16 6 0 10 -4 10 -9z m240 -7 c0 -8 -4 -12
-10 -9 -5 3 -10 10 -10 16 0 5 5 9 10 9 6 0 10 -7 10 -16z m135 6 c3 -5 1 -10
-4 -10 -6 0 -11 5 -11 10 0 6 2 10 4 10 3 0 8 -4 11 -10z m-355 -29 c0 -10
-61 -44 -67 -37 -2 2 11 13 29 24 40 25 38 24 38 13z m-2243 -7 c-3 -3 -12 -4
-19 -1 -8 3 -5 6 6 6 11 1 17 -2 13 -5z m208 -6 c-11 -6 -28 -18 -37 -26 -11
-9 -18 -11 -18 -4 0 12 47 41 65 41 6 0 1 -5 -10 -11z m235 -8 c36 -28 21 -31
-19 -3 -19 12 -28 23 -20 23 8 0 25 -9 39 -20z m2019 4 c18 -9 30 -18 28 -21
-3 -2 -22 5 -44 16 -45 24 -31 28 16 5z m321 1 c14 -16 10 -18 -14 -9 -9 3
-16 10 -16 15 0 14 16 11 30 -6z m-2886 -10 c3 -8 1 -15 -5 -15 -6 0 -9 -5 -7
-11 2 -6 8 -11 13 -11 6 0 16 -5 23 -10 9 -8 20 -4 40 15 23 22 33 25 69 20
44 -6 49 -16 13 -26 -11 -3 -18 -1 -14 4 5 9 -8 13 -36 10 -8 -1 -25 -13 -37
-26 -13 -15 -24 -21 -28 -14 -4 6 -13 8 -21 5 -7 -3 -19 4 -25 15 -9 17 -13
18 -27 7 -15 -11 -15 -11 -4 3 7 9 10 24 6 33 -4 11 -1 16 14 16 11 0 22 -7
26 -15z m621 5 c-3 -5 -10 -10 -16 -10 -5 0 -9 5 -9 10 0 6 7 10 16 10 8 0 12
-4 9 -10z m1625 0 c0 -5 -2 -10 -4 -10 -3 0 -8 5 -11 10 -3 6 -1 10 4 10 6 0
11 -4 11 -10z m-2193 -6 c-3 -3 -12 -4 -19 -1 -8 3 -5 6 6 6 11 1 17 -2 13 -5z
m2440 -10 c-3 -3 -12 -4 -19 -1 -8 3 -5 6 6 6 11 1 17 -2 13 -5z m273 -9 c11
-14 10 -14 -14 -6 -24 10 -30 7 -28 -10 1 -3 -10 -4 -23 -1 -47 9 -31 21 41
31 6 0 17 -6 24 -14z m110 5 c0 -5 -4 -10 -9 -10 -6 0 -13 5 -16 10 -3 6 1 10
9 10 9 0 16 -4 16 -10z m-10 -45 c0 -3 -10 -3 -21 0 -13 5 -25 2 -30 -6 -4 -7
-11 -10 -15 -6 -4 3 4 15 17 25 19 16 25 17 36 6 7 -7 13 -15 13 -19z m-2520
1 c0 -9 -8 -12 -27 -8 l-28 6 25 7 c14 4 26 7 28 8 1 1 2 -5 2 -13z m2020 4
c0 -5 -5 -10 -11 -10 -5 0 -7 5 -4 10 3 6 8 10 11 10 2 0 4 -4 4 -10z m180 -5
c0 -1 -9 -5 -20 -8 -12 -3 -20 0 -20 8 0 8 8 11 20 8 11 -3 20 -7 20 -8z
m-2460 -35 c-11 -22 -25 -40 -31 -40 -11 0 3 31 29 61 24 28 25 24 2 -21z
m420 36 c0 -11 -19 -15 -25 -6 -3 5 1 10 9 10 9 0 16 -2 16 -4z m-515 -37
c-10 -15 -25 -10 -19 6 4 8 10 12 15 9 5 -3 7 -10 4 -15z m41 -6 c-7 -7 -26 7
-26 19 0 6 6 6 15 -2 9 -7 13 -15 11 -17z m1800 10 c-2 -10 -7 -33 -11 -50 -4
-18 -11 -33 -16 -33 -5 0 -27 -20 -50 -44 -41 -45 -109 -93 -109 -77 0 5 11
16 25 25 44 29 102 96 125 146 22 48 47 69 36 33z m1001 -7 c-16 -18 -31 -8
-16 10 6 7 15 11 20 8 5 -3 3 -11 -4 -18z m-2542 4 c3 -6 -1 -7 -9 -4 -18 7
-21 14 -7 14 6 0 13 -4 16 -10z m265 0 c0 -5 -12 -10 -27 -9 l-28 1 25 8 c14
4 26 8 28 9 1 1 2 -3 2 -9z m2030 6 c0 -2 -7 -7 -16 -10 -8 -3 -12 -2 -9 4 6
10 25 14 25 6z m210 -33 c0 -13 -3 -13 -15 -3 -8 7 -15 19 -15 27 0 13 3 13
15 3 8 -7 15 -19 15 -27z m80 27 c0 -5 -2 -10 -4 -10 -3 0 -8 5 -11 10 -3 6
-1 10 4 10 6 0 11 -4 11 -10z m-2710 -17 c23 6 23 -15 0 -24 -19 -8 -42 0 -34
12 3 5 0 9 -5 9 -6 0 -11 5 -11 11 0 8 5 8 15 -1 8 -7 24 -10 35 -7z m2570 11
c0 -17 -43 -41 -63 -36 -13 3 -16 7 -8 10 11 4 11 6 0 13 -9 6 -2 7 19 3 21
-4 32 -3 32 5 0 6 5 11 10 11 6 0 10 -3 10 -6z m-2136 -33 c-2 -3 -12 3 -22
13 -16 17 -16 18 5 5 12 -7 20 -15 17 -18z m70 8 c-3 -5 -17 -8 -32 -8 -17 1
-21 3 -9 6 9 2 15 8 12 13 -3 4 4 6 15 3 11 -3 17 -9 14 -14z m1541 12 c-3 -5
5 -12 17 -14 17 -3 15 -5 -9 -6 -35 -1 -54 15 -26 22 10 3 19 5 21 6 2 0 1 -3
-3 -8z m-2257 -26 c-3 -3 -9 2 -12 12 -6 14 -5 15 5 6 7 -7 10 -15 7 -18z
m513 -2 c13 -16 12 -17 -3 -4 -10 7 -18 15 -18 17 0 8 8 3 21 -13z m2443 9 c3
-5 -1 -9 -9 -9 -8 0 -12 4 -9 9 3 4 7 8 9 8 2 0 6 -4 9 -8z m-2878 -31 c0 -13
-6 -17 -20 -13 -18 5 -18 6 -1 19 11 7 19 13 20 13 0 0 1 -8 1 -19z m171 13
c-3 -3 -12 -4 -19 -1 -8 3 -5 6 6 6 11 1 17 -2 13 -5z m2466 -1 c-7 -2 -19 -2
-25 0 -7 3 -2 5 12 5 14 0 19 -2 13 -5z m-2693 -12 c0 -5 -6 -11 -13 -14 -8
-3 -14 1 -14 9 0 8 6 14 14 14 7 0 13 -4 13 -9z m175 -1 c3 -5 -1 -10 -9 -10
-9 0 -16 5 -16 10 0 6 4 10 9 10 6 0 13 -4 16 -10z m188 -4 c4 -10 1 -13 -9
-9 -15 6 -19 23 -5 23 5 0 11 -7 14 -14z m167 4 c0 -5 -4 -10 -10 -10 -5 0
-10 5 -10 10 0 6 5 10 10 10 6 0 10 -4 10 -10z m1855 0 c-3 -5 -14 -10 -23
-10 -15 0 -15 2 -2 10 20 13 33 13 25 0z m165 0 c0 -5 -4 -10 -10 -10 -5 0
-10 5 -10 10 0 6 5 10 10 10 6 0 10 -4 10 -10z m190 0 c0 -5 -4 -10 -10 -10
-5 0 -10 5 -10 10 0 6 5 10 10 10 6 0 10 -4 10 -10z m130 1 c0 -5 -7 -11 -14
-14 -10 -4 -13 -1 -9 9 6 15 23 19 23 5z m57 -9 c7 -13 8 -23 1 -33 -8 -11 -9
-10 -4 4 4 13 0 20 -14 24 -11 3 -17 9 -14 14 8 14 18 11 31 -9z m-2690 -8
c-3 -3 -12 -4 -19 -1 -8 3 -5 6 6 6 11 1 17 -2 13 -5z m80 0 c-3 -3 -12 -4
-19 -1 -8 3 -5 6 6 6 11 1 17 -2 13 -5z m2280 0 c-3 -3 -12 -4 -19 -1 -8 3 -5
6 6 6 11 1 17 -2 13 -5z m-2644 -19 c-3 -9 -8 -14 -10 -11 -3 3 -2 9 2 15 9
16 15 13 8 -4z m247 5 c8 -5 11 -10 6 -10 -5 0 -2 -8 5 -17 11 -15 11 -16 -1
-5 -18 15 -47 16 -52 0 -2 -6 -10 -8 -16 -4 -9 5 -8 11 3 22 8 9 20 12 26 8 8
-4 9 -3 5 4 -9 14 4 15 24 2z m340 6 c0 -2 -7 -7 -16 -10 -8 -3 -12 -2 -9 4 6
10 25 14 25 6z m2200 -6 c8 -5 11 -10 6 -10 -5 0 -3 -7 4 -15 7 -9 10 -18 7
-22 -4 -3 -9 2 -13 11 -8 21 -33 20 -64 -1 l-25 -17 20 25 c34 41 41 44 65 29z
m-2638 -26 c-4 -23 -6 -24 -15 -9 -8 14 2 32 19 35 1 0 -1 -12 -4 -26z m2713
-3 c-7 -23 -25 -29 -25 -8 0 14 21 39 28 33 2 -3 1 -14 -3 -25z m-2805 -17 c0
-8 -4 -12 -10 -9 -5 3 -10 10 -10 16 0 5 5 9 10 9 6 0 10 -7 10 -16z m45 -3
c-3 -6 -11 -8 -17 -5 -6 4 -5 9 3 15 16 10 23 4 14 -10z m275 12 c-8 -3 -20
-10 -26 -15 -7 -5 -14 -4 -17 4 -3 9 6 14 27 15 17 0 24 -1 16 -4z m1604 -71
c34 -78 46 -151 36 -222 -21 -146 -100 -222 -229 -219 l-46 1 45 12 c132 37
220 134 220 243 0 56 -46 174 -66 166 -11 -4 -14 5 -14 39 0 45 8 65 20 51 4
-5 19 -36 34 -71z m660 72 c9 -3 16 -11 16 -16 0 -6 -6 -5 -15 2 -8 7 -24 10
-35 7 -11 -3 -18 -1 -14 4 6 10 26 12 48 3z m260 0 c12 -5 13 -10 5 -25 -7
-15 -6 -19 6 -19 8 0 15 -4 15 -10 0 -13 -27 -13 -35 0 -4 6 -11 8 -16 5 -5
-4 -9 1 -9 9 0 10 6 13 15 10 18 -7 20 7 3 24 -13 13 -8 15 16 6z m46 -10 c0
-8 -5 -12 -10 -9 -6 4 -8 11 -5 16 9 14 15 11 15 -7z m-2640 -25 c15 -28 5
-23 -15 7 -9 15 -12 23 -6 20 6 -4 16 -16 21 -27z m1375 -19 c-21 -22 -44 -40
-50 -40 -9 1 74 79 85 80 2 0 -14 -18 -35 -40z m-1504 13 c13 -16 12 -17 -3
-4 -10 7 -18 15 -18 17 0 8 8 3 21 -13z m1159 7 c0 -5 -8 -10 -17 -11 -11 0
-13 -3 -5 -6 6 -2 12 -14 12 -24 0 -11 -4 -18 -9 -15 -5 3 -14 -1 -22 -10 -7
-8 -22 -20 -33 -25 -15 -7 -13 -3 7 13 16 15 27 34 27 49 0 14 3 29 7 32 10
11 33 8 33 -3z m549 -49 c16 -49 14 -111 -7 -151 -14 -28 -23 -35 -47 -35 -27
-1 -31 -5 -39 -44 -9 -43 -71 -121 -96 -121 -20 0 -58 47 -70 86 -24 79 -48
219 -41 232 5 8 15 -23 26 -79 27 -144 52 -188 97 -175 32 9 78 73 78 108 0
16 -7 51 -16 78 -9 26 -14 59 -12 72 3 17 8 9 22 -34 9 -31 23 -62 31 -68 21
-18 48 -8 63 22 11 23 10 33 -5 65 l-17 38 -6 -50 c-4 -27 -8 -45 -10 -40 -4
18 1 138 7 148 8 13 29 -13 42 -52z m804 44 c-3 -9 -8 -14 -10 -11 -3 3 -2 9
2 15 9 16 15 13 8 -4z m-2558 -15 c23 -22 71 -32 68 -14 -1 7 6 10 17 7 37
-10 31 -22 -15 -29 -41 -6 -47 -4 -66 20 -14 18 -25 24 -33 18 -13 -11 -46
-12 -46 -1 0 4 10 10 23 12 12 2 24 5 26 6 3 0 14 -8 26 -19z m285 10 c0 -13
-11 -13 -30 0 -12 8 -11 10 8 10 12 0 22 -4 22 -10z m2200 6 c0 -2 -9 -6 -20
-9 -11 -3 -20 -1 -20 4 0 5 9 9 20 9 11 0 20 -2 20 -4z m192 -12 c-26 -18 -20
-38 9 -29 11 4 19 2 19 -4 0 -13 -14 -14 -59 -5 -34 7 -43 24 -12 24 10 0 24
7 31 15 7 8 17 15 23 15 6 0 1 -7 -11 -16z m-2739 -55 c-6 -23 -37 -20 -52 4
-11 16 -10 17 8 8 22 -12 41 -15 26 -3 -5 4 -16 15 -24 25 -14 17 -13 17 16 1
20 -12 29 -24 26 -35z m318 -9 c5 0 9 -5 9 -10 0 -17 -58 18 -71 42 -11 20 -9
20 20 -5 18 -15 37 -27 42 -27z m129 46 c0 -3 -4 -8 -10 -11 -5 -3 -10 -1 -10
4 0 6 5 11 10 11 6 0 10 -2 10 -4z m2430 -15 c0 -5 -7 -11 -15 -15 -15 -5 -20
5 -8 17 9 10 23 9 23 -2z m-280 -5 c0 -9 -69 -44 -75 -38 -3 3 9 14 27 23 34
18 48 22 48 15z m37 -2 c-3 -3 -12 -4 -19 -1 -8 3 -5 6 6 6 11 1 17 -2 13 -5z
m-2574 -11 c-7 -2 -21 -2 -30 0 -10 3 -4 5 12 5 17 0 24 -2 18 -5z m2437 -3
c8 -5 11 -10 5 -10 -5 0 -17 5 -25 10 -8 5 -10 10 -5 10 6 0 17 -5 25 -10z
m328 3 c-10 -2 -26 -2 -35 0 -10 3 -2 5 17 5 19 0 27 -2 18 -5z m66 -8 c-10
-8 -28 -14 -39 -14 -18 0 -17 1 5 14 34 20 60 20 34 0z m32 -23 c-15 -30 -13
-62 5 -62 4 0 13 -9 19 -20 7 -14 7 -20 0 -20 -5 0 -10 7 -10 15 0 8 -5 15
-10 15 -6 0 -13 -7 -16 -15 -4 -8 -16 -15 -28 -14 -14 0 -16 2 -6 6 16 6 30
23 30 37 0 4 -12 0 -27 -9 -28 -18 -28 -18 -10 2 30 35 14 44 -33 20 -14 -7
-47 -13 -75 -14 -27 0 -40 1 -27 4 17 3 22 9 17 21 -5 13 -2 13 15 -3 11 -10
20 -13 20 -7 0 6 6 9 14 6 17 -7 86 22 86 35 0 6 6 11 14 11 8 0 17 7 20 16 4
9 9 14 12 11 3 -3 -2 -19 -10 -35z m-2938 -19 c11 -11 10 -13 -3 -13 -12 0
-16 -6 -13 -18 3 -11 0 -19 -7 -19 -8 0 -11 7 -7 15 3 10 1 13 -6 8 -8 -5 -12
1 -12 18 0 14 -4 28 -10 31 -5 3 -10 11 -10 16 0 10 44 -15 68 -38z m119 31
c-3 -3 -12 -4 -19 -1 -8 3 -5 6 6 6 11 1 17 -2 13 -5z m83 2 c0 -2 -7 -7 -16
-10 -8 -3 -12 -2 -9 4 6 10 25 14 25 6z m2582 -8 c-9 -9 -15 -9 -24 0 -9 9 -7
12 12 12 19 0 21 -3 12 -12z m-2487 -6 c6 -4 16 -15 23 -24 11 -14 11 -16 -7
-11 -12 3 -21 11 -21 18 0 7 -6 16 -12 18 -7 3 -8 6 -3 6 6 0 15 -3 20 -7z
m1595 -29 c-1 -28 -3 -34 -10 -22 -8 14 -3 59 6 59 2 0 4 -17 4 -37z m-1743
21 c-3 -3 -12 -4 -19 -1 -8 3 -5 6 6 6 11 1 17 -2 13 -5z m991 -18 c17 -9 32
-20 32 -25 0 -5 -17 0 -37 11 -30 15 -53 19 -110 16 -85 -4 -117 -22 -150 -88
-43 -84 -22 -149 62 -190 34 -17 63 -21 129 -21 153 -1 236 46 340 191 58 80
96 110 96 76 0 -15 -26 -46 -40 -46 -4 0 -30 -33 -56 -72 -86 -128 -148 -175
-257 -198 -64 -13 -186 0 -222 24 -95 63 -117 161 -60 261 34 60 92 87 175 82
36 -2 80 -12 98 -21z m1438 -3 c-10 -10 -19 5 -10 18 6 11 8 11 12 0 2 -7 1
-15 -2 -18z m-2396 7 c0 -5 -4 -10 -10 -10 -5 0 -10 5 -10 10 0 6 5 10 10 10
6 0 10 -4 10 -10z m2540 0 c0 -5 -4 -10 -10 -10 -5 0 -10 5 -10 10 0 6 5 10
10 10 6 0 10 -4 10 -10z m-1080 -10 c11 -7 12 -14 4 -27 -13 -21 -25 -25 -42
-14 -12 7 -12 12 -1 30 16 24 18 24 39 11z m-1540 -22 c0 -12 -48 -10 -55 2
-3 5 7 8 25 7 16 -1 30 -5 30 -9z m43 -5 c-7 -2 -19 -2 -25 0 -7 3 -2 5 12 5
14 0 19 -2 13 -5z m212 -14 c-4 -5 -12 -9 -18 -8 -9 0 -8 2 1 6 6 2 9 10 6 15
-4 7 -2 8 5 4 6 -4 9 -12 6 -17z m-405 0 c0 -5 -4 -7 -10 -4 -5 3 -10 -1 -10
-9 0 -9 -4 -16 -10 -16 -14 0 -13 13 2 28 15 15 28 15 28 1z m276 -5 c19 -15
19 -15 -1 -6 -11 5 -27 12 -35 15 -13 5 -13 6 1 6 8 1 24 -6 35 -15z m2309 6
c3 -5 1 -10 -4 -10 -6 0 -11 5 -11 10 0 6 2 10 4 10 3 0 8 -4 11 -10z m162 4
c-3 -3 -12 -4 -19 -1 -8 3 -5 6 6 6 11 1 17 -2 13 -5z m-2652 -24 c-3 -5 1
-10 10 -10 9 0 14 -4 10 -10 -3 -5 -12 -7 -20 -3 -23 8 -18 -14 7 -31 19 -14
19 -16 5 -22 -9 -3 -25 -3 -34 1 -12 5 -14 9 -6 12 7 2 10 10 7 18 -5 13 12
55 22 55 3 0 2 -4 -1 -10z m290 -9 c3 -5 1 -12 -5 -16 -5 -3 -10 1 -10 9 0 18
6 21 15 7z m1325 -22 c-13 -24 -23 -29 -39 -20 -21 13 4 51 29 44 15 -4 18 -9
10 -24z m1176 16 c-11 -8 -22 -12 -25 -9 -6 6 19 24 34 24 6 -1 1 -7 -9 -15z
m-2619 -1 c-3 -3 -12 -4 -19 -1 -8 3 -5 6 6 6 11 1 17 -2 13 -5z m883 -2 c0
-4 -9 -13 -19 -19 -16 -10 -18 -9 -14 8 5 18 33 28 33 11z m1453 1 c-7 -2 -19
-2 -25 0 -7 3 -2 5 12 5 14 0 19 -2 13 -5z m124 1 c-3 -3 -12 -4 -19 -1 -8 3
-5 6 6 6 11 1 17 -2 13 -5z m-2740 -81 c-2 -16 -4 -3 -4 27 0 30 2 43 4 28 2
-16 2 -40 0 -55z m168 66 c11 -16 1 -19 -13 -3 -7 8 -8 14 -3 14 5 0 13 -5 16
-11z m2695 7 c0 -2 -7 -6 -15 -10 -8 -3 -15 -1 -15 4 0 6 7 10 15 10 8 0 15
-2 15 -4z m56 -13 c-4 -9 -1 -20 6 -25 10 -6 10 -8 1 -8 -7 0 -13 -8 -13 -17
0 -15 -2 -16 -10 -3 -5 8 -10 11 -10 6 0 -6 -5 -5 -12 2 -8 8 -5 17 13 36 28
30 33 32 25 9z m-1816 -28 c13 -14 21 -28 17 -31 -8 -8 -56 28 -57 44 0 19 14
14 40 -13z m-1050 11 c0 -2 -7 -7 -16 -10 -8 -3 -12 -2 -9 4 6 10 25 14 25 6z
m2608 -27 c-3 -8 -7 -3 -11 10 -4 17 -3 21 5 13 5 -5 8 -16 6 -23z m-2418 -19
c0 -5 -5 -10 -11 -10 -5 0 -7 5 -4 10 3 6 8 10 11 10 2 0 4 -4 4 -10z m70 0
c0 -5 -5 -10 -11 -10 -5 0 -7 5 -4 10 3 6 8 10 11 10 2 0 4 -4 4 -10z m70 -5
c11 -13 10 -14 -4 -9 -9 3 -16 10 -16 15 0 13 6 11 20 -6z m2315 6 c3 -5 1
-12 -4 -15 -5 -3 -11 1 -15 9 -6 16 9 21 19 6z m80 -1 c3 -5 -1 -10 -10 -10
-9 0 -13 5 -10 10 3 6 8 10 10 10 2 0 7 -4 10 -10z m-145 -4 c0 -2 -7 -7 -16
-10 -8 -3 -12 -2 -9 4 6 10 25 14 25 6z m190 -21 c11 -13 10 -14 -4 -9 -9 3
-16 10 -16 15 0 13 6 11 20 -6z m-2620 -5 c0 -5 -2 -10 -4 -10 -3 0 -8 5 -11
10 -3 6 -1 10 4 10 6 0 11 -4 11 -10z m2667 -6 c-3 -3 -12 -4 -19 -1 -8 3 -5
6 6 6 11 1 17 -2 13 -5z m-1026 -45 c-24 -21 -47 -37 -50 -34 -7 7 69 74 84
74 6 0 -10 -18 -34 -40z m-1772 -5 c-9 -11 -15 -11 -25 -3 -21 18 -17 27 11
21 20 -3 23 -7 14 -18z m114 11 c-3 -9 -8 -14 -10 -11 -3 3 -2 9 2 15 9 16 15
13 8 -4z m277 -41 c0 -2 -14 -4 -31 -4 -24 0 -30 3 -25 16 3 9 6 23 6 31 0 11
7 8 25 -11 14 -15 25 -29 25 -32z m1089 27 c-15 -5 -22 6 -14 19 6 9 10 9 16
-1 5 -8 4 -15 -2 -18z m1042 -6 c5 4 9 0 9 -8 0 -20 -20 -26 -50 -15 l-25 10
23 9 c12 4 23 16 23 26 1 12 3 11 6 -5 2 -12 9 -20 14 -17z m239 21 c0 -3 -4
-8 -10 -11 -5 -3 -10 -1 -10 4 0 6 5 11 10 11 6 0 10 -2 10 -4z m125 -6 c-3
-5 -13 -10 -21 -10 -8 0 -14 5 -14 10 0 6 9 10 21 10 11 0 17 -4 14 -10z
m-2720 -10 c3 -5 1 -10 -4 -10 -6 0 -11 5 -11 10 0 6 2 10 4 10 3 0 8 -4 11
-10z m2542 -6 c-3 -3 -12 -4 -19 -1 -8 3 -5 6 6 6 11 1 17 -2 13 -5z m213 -9
c0 -8 -7 -15 -15 -15 -13 0 -14 3 -3 15 16 18 18 18 18 0z m-2955 -15 c3 -6
-1 -7 -9 -4 -18 7 -21 14 -7 14 6 0 13 -4 16 -10z m1410 -25 c19 -15 19 -15
-1 -35 -17 -17 -22 -18 -38 -7 -16 12 -17 16 -5 35 16 26 18 26 44 7z m-1305
-10 c-7 -8 -17 -15 -22 -15 -11 0 14 29 26 30 5 0 3 -7 -4 -15z m216 -12 c-10
-10 -19 5 -10 18 6 11 8 11 12 0 2 -7 1 -15 -2 -18z m2298 11 c4 -10 1 -14 -6
-12 -15 5 -23 28 -10 28 5 0 13 -7 16 -16z m219 2 c4 -10 1 -13 -9 -9 -15 6
-19 23 -5 23 5 0 11 -7 14 -14z m-103 0 c0 -3 -4 -8 -10 -11 -5 -3 -10 -1 -10
4 0 6 5 11 10 11 6 0 10 -2 10 -4z m-2717 -32 c-6 -17 -23 -9 -23 11 0 8 6 12
14 9 8 -3 12 -12 9 -20z m2907 6 c0 -5 -4 -10 -10 -10 -5 0 -10 5 -10 10 0 6
5 10 10 10 6 0 10 -4 10 -10z m-2750 -10 c0 -5 -5 -10 -11 -10 -5 0 -7 5 -4
10 3 6 8 10 11 10 2 0 4 -4 4 -10z m2585 0 c3 -5 1 -10 -4 -10 -6 0 -11 5 -11
10 0 6 2 10 4 10 3 0 8 -4 11 -10z m-2765 -59 c-1 -10 -6 -7 -15 9 -19 33 -18
50 0 26 8 -11 15 -27 15 -35z m160 29 c0 -5 -4 -10 -10 -10 -5 0 -10 5 -10 10
0 6 5 10 10 10 6 0 10 -4 10 -10z m2794 -14 c-3 -9 -13 -16 -22 -16 -13 0 -12
3 3 20 20 23 29 21 19 -4z m-194 -6 c0 -5 -5 -10 -11 -10 -5 0 -7 5 -4 10 3 6
8 10 11 10 2 0 4 -4 4 -10z m-2545 -20 c3 -5 1 -10 -4 -10 -6 0 -11 5 -11 10
0 6 2 10 4 10 3 0 8 -4 11 -10z m-113 -32 c-7 -7 -12 -8 -12 -2 0 14 12 26 19
19 2 -3 -1 -11 -7 -17z m43 3 c-3 -6 -11 -11 -17 -11 -6 0 -6 6 2 15 14 17 26
13 15 -4z m2705 -3 c0 -6 -6 -5 -15 2 -8 7 -15 14 -15 16 0 2 7 1 15 -2 8 -4
15 -11 15 -16z m-35 2 c3 -5 -1 -10 -9 -10 -9 0 -16 5 -16 10 0 6 4 10 9 10 6
0 13 -4 16 -10z m-1635 -29 c0 -16 3 -38 6 -48 5 -15 4 -15 -5 -3 -8 12 -13
11 -33 -7 -21 -20 -78 -48 -78 -38 0 2 18 14 40 26 28 16 40 29 40 45 0 29 10
54 21 54 5 0 9 -13 9 -29z m-1266 4 c4 -13 2 -14 -14 -5 -23 13 -26 20 -6 20
8 0 16 -7 20 -15z m1912 -16 c20 -40 20 -138 -1 -178 -8 -17 -32 -40 -53 -51
-20 -11 -44 -25 -53 -32 -21 -15 -47 -4 -58 24 l-8 22 -30 -30 c-21 -20 -33
-44 -37 -75 -12 -74 -36 -138 -59 -154 -28 -19 -90 -19 -127 0 -17 9 -30 17
-30 18 0 1 28 2 61 2 59 0 63 2 94 38 26 30 36 54 46 110 11 59 19 78 47 106
l33 34 12 -24 c16 -31 43 -36 70 -11 12 11 36 27 54 36 37 18 47 44 39 92 -10
49 -26 52 -26 5 0 -24 -5 -41 -11 -41 -8 0 -10 15 -5 46 3 26 6 57 6 70 0 33
16 30 36 -7z m1141 -3 c-12 -18 -25 -32 -29 -29 -6 3 39 63 48 63 2 0 -7 -15
-19 -34z m93 29 c0 -2 -8 -9 -18 -14 -14 -8 -19 -6 -19 5 0 7 9 14 19 14 10 0
18 -2 18 -5z m-1317 -12 c9 -16 -12 -53 -27 -47 -9 3 -21 -5 -32 -21 -21 -32
-28 -27 -14 11 19 50 59 81 73 57z m210 -55 c28 -67 47 -150 46 -202 0 -21 -8
-4 -24 54 -46 169 -65 181 -65 44 0 -60 -3 -83 -11 -78 -17 10 3 244 21 244 4
0 19 -28 33 -62z m-1860 38 c9 -7 17 -17 17 -21 0 -4 -6 -2 -13 4 -8 6 -16 8
-19 5 -3 -2 -8 2 -11 11 -8 18 2 19 26 1z m2780 -2 c-6 -15 -41 -25 -49 -13
-3 5 2 9 10 9 9 0 16 4 16 8 0 5 6 9 14 9 8 0 12 -6 9 -13z m-1383 2 c0 -14
-14 -36 -22 -36 -5 0 -6 5 -3 10 3 6 -1 10 -9 10 -9 0 -16 5 -16 10 0 6 11 10
25 10 14 0 25 -2 25 -4z m-1495 -16 c3 -5 1 -10 -4 -10 -6 0 -11 5 -11 10 0 6
2 10 4 10 3 0 8 -4 11 -10z m2639 -5 c3 -8 1 -15 -4 -15 -6 0 -10 7 -10 15 0
8 2 15 4 15 2 0 6 -7 10 -15z m-2474 -46 c0 -6 -4 -7 -10 -4 -5 3 -10 11 -10
16 0 6 5 7 10 4 6 -3 10 -11 10 -16z m2641 -1 c11 -21 11 -22 -4 -9 -10 7 -17
17 -17 22 0 15 9 10 21 -13z m86 0 c-3 -8 -6 -5 -6 6 -1 11 2 17 5 13 3 -3 4
-12 1 -19z m-2827 2 c0 -5 -4 -10 -10 -10 -5 0 -10 5 -10 10 0 6 5 10 10 10 6
0 10 -4 10 -10z m44 -34 c7 -27 6 -28 -10 -15 -11 9 -15 9 -10 2 4 -7 2 -13
-3 -13 -15 0 -14 28 2 44 6 8 12 13 13 12 1 0 4 -14 8 -30z m2758 -19 c-4 -16
-6 -17 -22 -2 -10 9 -16 24 -13 35 5 17 6 17 22 2 9 -10 15 -25 13 -35z
m-2637 23 c3 -5 1 -10 -4 -10 -6 0 -11 5 -11 10 0 6 2 10 4 10 3 0 8 -4 11
-10z m2505 0 c0 -5 -4 -10 -10 -10 -5 0 -10 5 -10 10 0 6 5 10 10 10 6 0 10
-4 10 -10z m-2550 -20 c0 -5 -5 -10 -11 -10 -5 0 -7 5 -4 10 3 6 8 10 11 10 2
0 4 -4 4 -10z m970 -6 c39 -8 72 -20 75 -25 8 -13 -4 -11 -61 6 -66 20 -177
19 -220 -1 -45 -21 -74 -70 -74 -124 0 -37 6 -48 39 -80 66 -63 209 -80 327
-40 80 28 90 37 96 94 9 80 78 121 78 46 0 -36 13 -39 34 -8 20 28 20 52 1 68
-12 10 -15 9 -16 -6 0 -11 -3 -13 -6 -7 -2 7 1 29 8 50 l12 37 18 -23 c25 -31
24 -67 -3 -121 -22 -43 -64 -79 -156 -135 -138 -84 -325 -87 -411 -6 -81 75
-55 216 49 269 53 26 113 28 210 6z m177 -20 c3 -8 -2 -23 -11 -32 -15 -15
-17 -15 -33 0 -13 14 -14 20 -3 32 16 20 39 20 47 0z m-1264 -38 c4 -10 1 -13
-9 -9 -15 6 -19 23 -5 23 5 0 11 -7 14 -14z m107 -1 c0 -8 -2 -15 -4 -15 -2 0
-6 7 -10 15 -3 8 -1 15 4 15 6 0 10 -7 10 -15z m2730 6 c0 -5 -7 -11 -14 -14
-10 -4 -13 -1 -9 9 6 15 23 19 23 5z m-105 -21 c-3 -5 -12 -10 -18 -10 -7 0
-6 4 3 10 19 12 23 12 15 0z m-1708 -67 c-9 -8 -57 39 -57 56 0 9 12 2 31 -17
18 -18 29 -35 26 -39z m19 40 c-10 -10 -19 5 -10 18 6 11 8 11 12 0 2 -7 1
-15 -2 -18z m-727 0 c-20 -28 -41 -43 -58 -43 -10 0 -6 10 14 30 32 33 68 44
44 13z m-84 -53 c-4 -6 9 -17 27 -24 18 -8 41 -23 51 -34 10 -11 35 -22 56
-26 45 -7 75 -37 90 -90 5 -21 19 -48 30 -60 35 -38 89 -149 110 -226 27 -95
27 -186 0 -275 -35 -119 -35 -110 8 -123 86 -26 172 -105 204 -189 6 -15 14
-66 17 -112 l7 -85 55 -16 c74 -22 108 -41 153 -85 60 -58 90 -127 95 -220 5
-93 21 -119 86 -136 49 -13 92 -51 99 -88 3 -15 17 -33 30 -40 14 -7 30 -24
36 -37 14 -31 27 -30 35 1 4 14 18 31 32 37 14 7 33 30 43 54 19 43 48 65 106
78 37 9 54 23 68 56 9 22 11 23 15 6 4 -19 -24 -64 -49 -77 -7 -4 -35 -15 -61
-24 -41 -14 -51 -23 -70 -64 -12 -26 -31 -52 -42 -57 -12 -5 -27 -21 -34 -36
-14 -30 -42 -38 -42 -13 0 8 -14 25 -31 37 -17 13 -38 40 -46 61 -18 44 -52
71 -109 86 -60 16 -71 34 -77 126 -10 167 -89 265 -257 315 l-55 16 -6 90 c-4
68 -12 101 -32 140 -32 64 -98 123 -167 149 -67 26 -75 36 -57 72 22 42 47
153 47 205 0 102 -56 254 -134 363 -20 27 -36 60 -36 73 0 32 -40 68 -91 83
-24 7 -55 22 -69 35 -14 12 -34 24 -45 26 -28 5 -33 38 -5 38 12 0 18 -4 15
-10z m1530 -124 c43 -47 104 -28 142 43 18 35 23 39 23 21 0 -13 -10 -43 -21
-68 -57 -117 -182 -76 -177 58 1 42 2 43 5 8 2 -20 15 -48 28 -62z m-180 34
c-16 -16 -31 -27 -34 -24 -6 6 45 54 56 54 4 0 -6 -13 -22 -30z m-147 8 c17
-17 -13 -48 -39 -41 -10 3 -26 0 -34 -7 -18 -15 -45 -6 -45 14 0 17 27 28 50
21 9 -3 23 1 30 10 15 18 22 19 38 3z m256 -2 c-3 -8 -20 -20 -37 -27 -17 -7
-42 -25 -56 -39 -23 -25 -23 -25 1 10 19 27 70 64 95 70 1 0 0 -6 -3 -14z
m734 -26 c-22 -18 -39 -43 -43 -63 -4 -17 -22 -52 -40 -77 -38 -52 -77 -129
-103 -197 -27 -75 -23 -259 7 -336 23 -58 23 -87 -1 -87 -27 0 -115 -49 -151
-85 -60 -57 -89 -130 -91 -228 l-2 -81 -44 -12 c-147 -38 -248 -133 -265 -249
-4 -22 -7 -48 -9 -57 -1 -10 -6 -21 -10 -25 -13 -12 1 97 19 146 32 92 115
165 225 199 l65 20 1 68 c2 153 82 269 216 313 21 7 40 16 42 20 3 4 -7 38
-21 77 -30 83 -34 213 -8 309 18 66 70 170 116 227 16 20 29 47 29 61 0 30 17
52 55 72 47 24 53 18 13 -15z m-2338 16 c0 -3 -4 -8 -10 -11 -5 -3 -10 -1 -10
4 0 6 5 11 10 11 6 0 10 -2 10 -4z m20 -17 c0 -11 -4 -18 -10 -14 -5 3 -7 12
-3 20 7 21 13 19 13 -6z m2607 -1 c-3 -8 -6 -5 -6 6 -1 11 2 17 5 13 3 -3 4
-12 1 -19z m-2717 2 c0 -5 -5 -10 -11 -10 -5 0 -7 5 -4 10 3 6 8 10 11 10 2 0
4 -4 4 -10z m2840 -6 c0 -2 -7 -4 -15 -4 -8 0 -15 4 -15 10 0 5 7 7 15 4 8 -4
15 -8 15 -10z m-2793 -87 c-2 -31 -4 -32 -23 -13 -14 15 -19 48 -8 59 12 11
32 -20 31 -46z m2742 -8 c-12 -12 -19 -15 -17 -8 3 8 1 22 -4 32 -5 10 -5 17
1 17 5 0 12 -6 14 -12 3 -7 6 -2 7 12 l1 25 9 -23 c8 -17 5 -27 -11 -43z
m-2669 41 c0 -5 -4 -10 -10 -10 -5 0 -10 5 -10 10 0 6 5 10 10 10 6 0 10 -4
10 -10z m50 -24 c0 -3 -4 -8 -10 -11 -5 -3 -10 -1 -10 4 0 6 5 11 10 11 6 0
10 -2 10 -4z m2500 -6 c0 -5 -2 -10 -4 -10 -3 0 -8 5 -11 10 -3 6 -1 10 4 10
6 0 11 -4 11 -10z m-2670 -36 c0 -8 -4 -12 -10 -9 -5 3 -10 10 -10 16 0 5 5 9
10 9 6 0 10 -7 10 -16z m100 4 c0 -4 -4 -8 -9 -8 -6 0 -12 4 -15 8 -3 5 1 9 9
9 8 0 15 -4 15 -9z m2640 2 c0 -5 -5 -10 -11 -10 -5 0 -7 5 -4 10 3 6 8 10 11
10 2 0 4 -4 4 -10z m90 0 c0 -5 -5 -10 -11 -10 -5 0 -7 5 -4 10 3 6 8 10 11
10 2 0 4 -4 4 -10z m-2570 -40 c0 -5 -7 -7 -15 -4 -8 4 -12 10 -9 15 6 11 24
2 24 -11z m-325 1 c3 -5 1 -12 -5 -16 -5 -3 -10 1 -10 9 0 18 6 21 15 7z
m2645 5 c0 -3 -4 -8 -10 -11 -5 -3 -10 -1 -10 4 0 6 5 11 10 11 6 0 10 -2 10
-4z m319 -26 c11 -24 11 -24 -3 -6 -9 11 -16 24 -16 30 0 12 5 7 19 -24z m49
5 c-3 -3 -9 2 -12 12 -6 14 -5 15 5 6 7 -7 10 -15 7 -18z m-2898 7 c0 -4 -13
-13 -29 -19 -27 -10 -29 -9 -19 6 10 17 48 27 48 13z m2730 -2 c0 -5 -4 -10
-10 -10 -5 0 -10 5 -10 10 0 6 5 10 10 10 6 0 10 -4 10 -10z m30 -9 c0 -6 -4
-13 -10 -16 -5 -3 -10 1 -10 9 0 9 5 16 10 16 6 0 10 -4 10 -9z m-2963 -26 c0
-8 -6 -15 -14 -15 -17 0 -17 17 0 23 6 3 12 6 13 6 0 1 1 -6 1 -14z m2998 -5
c10 -11 16 -20 13 -20 -3 0 -13 9 -23 20 -10 11 -16 20 -13 20 3 0 13 -9 23
-20z m155 -1 c0 -14 -27 -10 -33 5 -4 10 0 12 14 9 10 -3 19 -9 19 -14z
m-3027 -4 c-3 -9 -8 -14 -10 -11 -3 3 -2 9 2 15 9 16 15 13 8 -4z m107 -10
c11 -13 10 -14 -4 -9 -9 3 -16 10 -16 15 0 13 6 11 20 -6z m2670 0 c-7 -9 -15
-13 -17 -11 -7 7 7 26 19 26 6 0 6 -6 -2 -15z m-2700 -5 c0 -5 -4 -10 -10 -10
-5 0 -10 5 -10 10 0 6 5 10 10 10 6 0 10 -4 10 -10z m2740 0 c0 -5 -4 -10 -10
-10 -5 0 -10 5 -10 10 0 6 5 10 10 10 6 0 10 -4 10 -10z m-2630 -30 c0 -5 -2
-10 -4 -10 -3 0 -8 5 -11 10 -3 6 -1 10 4 10 6 0 11 -4 11 -10z m2517 4 c-3
-3 -12 -4 -19 -1 -8 3 -5 6 6 6 11 1 17 -2 13 -5z m-2733 -13 c3 -4 -4 -17
-16 -27 -12 -11 -19 -14 -16 -9 3 6 8 18 11 28 7 19 13 21 21 8z m2950 -7 c11
-28 6 -39 -9 -20 -8 11 -15 23 -15 28 0 14 18 9 24 -8z m-2799 -14 c3 -5 1
-10 -4 -10 -6 0 -11 5 -11 10 0 6 2 10 4 10 3 0 8 -4 11 -10z m90 -8 c-3 -3
-11 0 -18 7 -9 10 -8 11 6 5 10 -3 15 -9 12 -12z m-234 -49 c-8 -15 -10 -15
-11 -2 0 17 10 32 18 25 2 -3 -1 -13 -7 -23z m169 17 c0 -5 -2 -10 -4 -10 -3
0 -8 5 -11 10 -3 6 -1 10 4 10 6 0 11 -4 11 -10z m2374 -6 c3 -8 2 -12 -4 -9
-6 3 -10 10 -10 16 0 14 7 11 14 -7z m373 -6 c-3 -8 -6 -5 -6 6 -1 11 2 17 5
13 3 -3 4 -12 1 -19z m-300 -13 c0 -8 -6 -15 -14 -15 -14 0 -17 12 -6 23 11
11 20 8 20 -8z m-2517 -5 c8 -5 11 -10 5 -10 -5 0 -17 5 -25 10 -8 5 -10 10
-5 10 6 0 17 -5 25 -10z m100 0 c0 -5 -4 -10 -10 -10 -5 0 -10 5 -10 10 0 6 5
10 10 10 6 0 10 -4 10 -10z m125 0 c3 -5 -1 -10 -9 -10 -9 0 -16 5 -16 10 0 6
4 10 9 10 6 0 13 -4 16 -10z m2405 0 c0 -5 -4 -10 -10 -10 -5 0 -10 5 -10 10
0 6 5 10 10 10 6 0 10 -4 10 -10z m100 -5 c-7 -9 -15 -13 -19 -10 -3 3 1 10 9
15 21 14 24 12 10 -5z m-2421 -51 c-14 -17 -35 -18 -45 -3 -9 15 13 28 37 22
15 -4 17 -8 8 -19z m2141 15 c11 -8 12 -12 3 -16 -7 -2 -13 -11 -13 -18 0 -9
-8 -6 -24 8 -22 19 -23 23 -8 29 23 9 25 9 42 -3z m-2570 -9 c0 -5 -2 -10 -4
-10 -3 0 -8 5 -11 10 -3 6 -1 10 4 10 6 0 11 -4 11 -10z m2967 -12 c-3 -8 -6
-5 -6 6 -1 11 2 17 5 13 3 -3 4 -12 1 -19z m-2727 8 c0 -9 -40 -13 -46 -5 -3
5 6 9 20 9 14 0 26 -2 26 -4z m2520 -6 c0 -13 -11 -13 -30 0 -12 8 -11 10 8
10 12 0 22 -4 22 -10z m-2716 -21 c-30 -12 -37 -10 -24 5 6 8 19 12 27 9 14
-6 14 -8 -3 -14z m2761 12 c3 -5 1 -12 -5 -16 -5 -3 -10 1 -10 9 0 18 6 21 15
7z m132 -8 c2 -6 -7 -10 -20 -9 -14 0 -23 6 -20 13 5 13 35 11 40 -4z m-2757
-53 c0 -5 -4 -10 -9 -10 -6 0 -13 5 -16 10 -3 6 1 10 9 10 9 0 16 -4 16 -10z
m2620 0 c0 -5 -4 -10 -10 -10 -5 0 -10 5 -10 10 0 6 5 10 10 10 6 0 10 -4 10
-10z m-2823 -37 c-3 -10 -5 -4 -5 12 0 17 2 24 5 18 2 -7 2 -21 0 -30z m313
17 c0 -5 8 -10 17 -10 9 0 14 -3 10 -6 -8 -8 -47 5 -47 17 0 5 5 9 10 9 6 0
10 -4 10 -10z m75 0 c-3 -5 -12 -10 -18 -10 -7 0 -6 4 3 10 19 12 23 12 15 0z
m2315 1 c0 -12 -39 -25 -47 -17 -4 3 1 6 10 6 10 0 17 5 17 10 0 6 5 10 10 10
6 0 10 -4 10 -9z m-2480 -8 c-14 -3 -32 -10 -40 -16 -13 -11 -13 -10 -1 6 7 9
25 16 40 16 l26 -2 -25 -4z m2593 0 c6 -10 -50 -9 -60 0 -3 4 8 7 25 7 17 0
33 -3 35 -7z m101 -52 c4 -55 -3 -60 -44 -35 l-25 15 33 -5 c29 -5 32 -4 22
13 -5 11 -15 21 -22 24 -9 3 -7 10 7 24 11 11 21 19 23 18 2 -2 5 -26 6 -54z
m-1569 39 c3 -5 1 -10 -4 -10 -6 0 -11 5 -11 10 0 6 2 10 4 10 3 0 8 -4 11
-10z m-1221 -15 c3 -9 0 -15 -9 -15 -14 0 -18 -10 -12 -27 1 -4 13 -6 27 -5
19 2 21 0 10 -7 -8 -4 -25 -12 -37 -15 -18 -6 -22 -4 -17 8 4 9 1 16 -6 16 -9
0 -10 3 -1 13 6 8 8 17 5 20 -9 9 5 27 21 27 7 0 15 -7 19 -15z m1673 -7 c-3
-8 -6 -5 -6 6 -1 11 2 17 5 13 3 -3 4 -12 1 -19z m-790 -10 c26 -24 31 -68 8
-68 -18 0 -20 17 -4 22 15 5 -11 48 -28 48 -7 0 -13 5 -13 10 0 16 12 12 37
-12z m670 -10 c-3 -7 -5 -2 -5 12 0 14 2 19 5 13 2 -7 2 -19 0 -25z m288 22
c-3 -5 -11 -10 -16 -10 -6 0 -7 5 -4 10 3 6 11 10 16 10 6 0 7 -4 4 -10z m42
-22 c-3 -8 -6 -5 -6 6 -1 11 2 17 5 13 3 -3 4 -12 1 -19z m-2009 -20 c-6 -35
18 -73 36 -58 7 5 11 -2 11 -23 0 -18 -6 -32 -15 -35 -8 -3 -20 -12 -27 -21
-17 -22 -16 -6 2 29 15 28 14 31 -10 52 -24 20 -36 56 -15 43 6 -4 10 5 10 19
0 14 3 26 6 26 4 0 4 -14 2 -32z m760 -17 c-15 -5 -21 7 -13 26 7 17 8 17 15
-2 4 -11 3 -22 -2 -24z m542 20 c0 -19 -176 -46 -200 -31 -9 6 1 9 30 8 29 0
47 5 55 16 13 17 30 23 20 7 -9 -15 13 -23 32 -12 11 6 13 11 5 11 -7 0 -11 4
-8 8 6 10 66 3 66 -7z m105 -1 c0 -7 -7 -15 -15 -17 -13 -4 -13 -3 0 6 13 9
12 11 -3 11 -10 0 -15 5 -12 11 9 13 30 6 30 -11z m55 -1 c0 -5 -7 -9 -15 -9
-15 0 -20 12 -9 23 8 8 24 -1 24 -14z m105 11 c-3 -5 -13 -10 -21 -10 -8 0
-12 5 -9 10 3 6 13 10 21 10 8 0 12 -4 9 -10z m85 -14 c0 -17 -68 -32 -83 -17
-7 7 -4 8 9 5 10 -3 28 2 39 10 25 19 35 20 35 2z m240 -2 c0 -8 -4 -12 -10
-9 -5 3 -10 10 -10 16 0 5 5 9 10 9 6 0 10 -7 10 -16z m84 -16 c-3 -4 -13 -8
-22 -8 -15 0 -15 2 -2 10 8 5 11 10 7 10 -5 0 -5 5 -1 11 4 8 9 7 15 -2 4 -7
5 -17 3 -21z m-1643 8 c-16 -19 -79 -48 -94 -43 -7 2 2 7 18 11 17 4 41 15 55
26 30 23 37 25 21 6z m56 -8 c-3 -8 -6 -5 -6 6 -1 11 2 17 5 13 3 -3 4 -12 1
-19z m558 10 c14 6 25 8 25 3 0 -14 -57 -23 -77 -13 -10 5 -27 6 -38 1 -11 -4
-27 -8 -35 -8 -8 0 1 6 20 13 25 9 42 10 58 3 15 -7 30 -7 47 1z m1235 2 c14
-2 3 -6 -24 -11 -51 -8 -71 -5 -61 11 3 5 18 7 33 5 15 -2 38 -4 52 -5z m440
1 c0 -6 -4 -13 -10 -16 -5 -3 -10 1 -10 9 0 9 5 16 10 16 6 0 10 -4 10 -9z
m-1255 -11 c4 -6 -5 -10 -19 -10 -14 0 -26 5 -26 10 0 6 9 10 19 10 11 0 23
-4 26 -10z m449 -1 c3 -3 -12 -6 -35 -7 -22 -1 -44 -4 -49 -7 -4 -3 -10 1 -13
8 -3 8 9 12 43 12 27 0 51 -3 54 -6z m1166 1 c0 -5 -8 -10 -17 -10 -15 0 -16
2 -3 10 19 12 20 12 20 0z m38 -19 c-13 -22 -38 -29 -38 -11 0 6 7 10 16 10 8
0 13 4 10 9 -4 5 0 11 6 14 19 7 21 1 6 -22z m-968 0 c0 -5 -7 -12 -16 -15
-14 -5 -15 -4 -4 9 14 17 20 19 20 6z m690 -5 c25 -8 36 -15 25 -15 -11 0 -33
6 -50 14 -39 18 -31 18 25 1z m-865 -6 c-3 -5 -11 -10 -16 -10 -6 0 -7 5 -4
10 3 6 11 10 16 10 6 0 7 -4 4 -10z m230 0 c-3 -5 -12 -10 -18 -10 -7 0 -6 4
3 10 19 12 23 12 15 0z m-1960 -21 c-32 -9 -47 -3 -26 10 7 5 23 6 35 3 19 -5
18 -6 -9 -13z m1432 15 c-3 -3 -12 -4 -19 -1 -8 3 -5 6 6 6 11 1 17 -2 13 -5z
m138 -4 c-3 -5 -11 -10 -16 -10 -6 0 -7 5 -4 10 3 6 11 10 16 10 6 0 7 -4 4
-10z m1195 -15 c0 -1 -11 -5 -25 -7 -13 -3 -22 -1 -19 3 3 5 -7 9 -23 10 -24
0 -25 2 -8 8 17 7 75 -4 75 -14z m79 -26 c12 -23 21 -43 19 -44 -2 -2 -19 10
-38 27 -19 16 -27 27 -18 24 15 -4 16 -1 8 20 -15 38 5 20 29 -27z m-2899 21
c-8 -5 -19 -10 -25 -10 -5 0 -3 5 5 10 8 5 20 10 25 10 6 0 3 -5 -5 -10z m95
-20 c10 -11 16 -20 13 -20 -3 0 -13 9 -23 20 -10 11 -16 20 -13 20 3 0 13 -9
23 -20z m185 7 c0 -7 -9 -18 -20 -25 -20 -12 -21 -12 -4 13 18 28 24 31 24 12z
m2276 -10 c3 -23 -13 -21 -26 2 -8 16 -7 19 7 17 9 -2 17 -10 19 -19z m-2406
9 c0 -11 -19 -15 -25 -6 -3 5 1 10 9 10 9 0 16 -2 16 -4z m2570 -16 c0 -5 -4
-10 -10 -10 -5 0 -10 5 -10 10 0 6 5 10 10 10 6 0 10 -4 10 -10z m-1300 -10
c0 -5 -4 -10 -10 -10 -5 0 -10 5 -10 10 0 6 5 10 10 10 6 0 10 -4 10 -10z
m-1330 -10 c0 -5 -4 -10 -10 -10 -5 0 -10 5 -10 10 0 6 5 10 10 10 6 0 10 -4
10 -10z m80 0 c13 -8 13 -10 -2 -10 -9 0 -20 5 -23 10 -8 13 5 13 25 0z m140
3 c-1 -11 -68 -42 -75 -35 -3 4 9 14 27 23 38 20 48 22 48 12z m754 -8 c3 -8
1 -15 -4 -15 -6 0 -10 7 -10 15 0 8 2 15 4 15 2 0 6 -7 10 -15z m1510 -27 c-3
-5 -14 -2 -23 6 -10 9 -28 16 -42 16 -18 0 -20 3 -10 9 17 11 83 -17 75 -31z
m176 32 c0 -5 -4 -10 -10 -10 -5 0 -10 5 -10 10 0 6 5 10 10 10 6 0 10 -4 10
-10z m-2775 -10 c-3 -5 2 -10 12 -10 17 -1 17 -2 -1 -15 -25 -19 -40 -19 -32
0 7 18 -5 20 -23 3 -11 -10 -10 -8 0 10 8 12 22 22 32 22 10 0 15 -4 12 -10z
m242 4 c-3 -3 -12 -4 -19 -1 -8 3 -5 6 6 6 11 1 17 -2 13 -5z m133 -24 c-7 -4
-22 -5 -34 -2 -18 5 -18 7 -3 10 9 2 14 8 11 14 -4 5 4 5 16 -2 16 -9 19 -14
10 -20z m1337 8 c-3 -8 -6 -5 -6 6 -1 11 2 17 5 13 3 -3 4 -12 1 -19z m930 16
c-3 -3 -12 -4 -19 -1 -8 3 -5 6 6 6 11 1 17 -2 13 -5z m40 0 c-3 -3 -12 -4
-19 -1 -8 3 -5 6 6 6 11 1 17 -2 13 -5z m220 -11 c10 -10 14 -15 9 -10 -6 4
-16 7 -24 7 -12 0 -12 -3 -2 -15 16 -19 0 -19 -26 0 -12 9 -14 14 -6 15 7 0
10 5 7 10 -10 17 22 11 42 -7z m-2760 -13 c36 0 43 -22 8 -28 -10 -3 -15 0
-11 7 9 14 -28 14 -57 0 -20 -9 -21 -9 -4 4 10 8 14 17 10 19 -4 3 -2 3 5 1 8
-1 29 -3 49 -3z m1218 0 c3 -5 1 -10 -4 -10 -6 0 -11 5 -11 10 0 6 2 10 4 10
3 0 8 -4 11 -10z m162 -61 c59 -7 60 -14 3 -15 -52 -2 -61 9 -59 66 1 19 3 16
8 -10 6 -32 9 -35 48 -41z m167 38 c32 -42 34 -67 5 -67 -17 0 -19 3 -10 14
14 17 5 43 -20 57 -11 5 -19 14 -19 19 0 20 20 9 44 -23z m1103 26 c-9 -2 -15
-8 -13 -12 3 -4 -9 -5 -26 -3 -25 4 -30 2 -25 -11 5 -13 2 -14 -15 -8 -53 20
-22 35 77 38 16 1 17 0 2 -4z m-2560 -9 c-3 -3 -12 -4 -19 -1 -8 3 -5 6 6 6
11 1 17 -2 13 -5z m1367 -19 c-18 -13 -17 -14 16 -21 l35 -8 -29 -7 c-20 -6
-33 -4 -44 8 -14 14 -13 17 9 33 13 10 26 17 28 14 3 -2 -4 -11 -15 -19z
m1069 18 c-7 -2 -19 -2 -25 0 -7 3 -2 5 12 5 14 0 19 -2 13 -5z m-1348 -13
c-3 -5 -12 -10 -18 -10 -7 0 -6 4 3 10 19 12 23 12 15 0z m1112 4 c-3 -3 -12
-4 -19 -1 -8 3 -5 6 6 6 11 1 17 -2 13 -5z m-2377 -44 c-1 -12 -3 -12 -14 3
-8 10 -20 15 -30 11 -9 -3 -16 -2 -16 4 0 16 23 20 43 8 9 -6 17 -18 17 -26z
m1337 18 c-3 -8 -6 -5 -6 6 -1 11 2 17 5 13 3 -3 4 -12 1 -19z m-227 -3 c0 -8
8 -15 17 -15 9 0 14 -3 10 -6 -3 -4 -37 -8 -75 -11 -57 -4 -71 -2 -83 13 -13
16 -12 17 6 9 46 -19 83 -18 97 4 15 25 28 27 28 6z m643 -11 c-4 -10 -9 -12
-15 -6 -12 12 -1 35 12 27 5 -3 6 -13 3 -21z m1057 14 c0 -5 -6 -8 -12 -5 -7
2 -20 -2 -29 -10 -14 -12 -17 -11 -21 4 -4 14 2 18 29 20 18 1 33 -3 33 -9z
m-2740 -2 c0 -2 -8 -10 -17 -17 -16 -13 -17 -12 -4 4 13 16 21 21 21 13z m225
-6 c-3 -5 -11 -10 -16 -10 -6 0 -7 5 -4 10 3 6 11 10 16 10 6 0 7 -4 4 -10z
m2185 6 c0 -3 -4 -8 -10 -11 -5 -3 -10 -1 -10 4 0 6 5 11 10 11 6 0 10 -2 10
-4z m231 -13 c13 -16 12 -17 -3 -4 -10 7 -18 15 -18 17 0 8 8 3 21 -13z
m-2533 -13 c-7 -10 -14 -17 -17 -15 -4 4 18 35 25 35 2 0 -1 -9 -8 -20z m1032
16 c0 -2 -7 -6 -15 -10 -8 -3 -15 -1 -15 4 0 6 7 10 15 10 8 0 15 -2 15 -4z
m86 -14 c-3 -4 -24 -9 -48 -9 -33 -1 -37 0 -18 6 37 10 72 12 66 3z m1495 -15
c-13 -13 -26 -3 -16 12 3 6 11 8 17 5 6 -4 6 -10 -1 -17z m39 8 c0 -8 -4 -15
-10 -15 -5 0 -7 7 -4 15 4 8 8 15 10 15 2 0 4 -7 4 -15z m-2890 -5 c0 -5 -4
-10 -10 -10 -5 0 -10 5 -10 10 0 6 5 10 10 10 6 0 10 -4 10 -10z m45 0 c3 -5
2 -10 -4 -10 -5 0 -13 5 -16 10 -3 6 -2 10 4 10 5 0 13 -4 16 -10z m249 1 c3
-5 -1 -11 -9 -14 -9 -4 -12 -1 -8 9 6 16 10 17 17 5z m2309 -5 c4 -10 1 -13
-9 -9 -15 6 -19 23 -5 23 5 0 11 -7 14 -14z m-2503 -3 c0 -14 -19 -38 -25 -32
-8 8 5 39 16 39 5 0 9 -3 9 -7z m94 -11 c19 10 19 9 8 -5 -11 -13 -10 -16 10
-20 13 -2 3 -3 -22 -2 -26 2 -44 8 -42 14 1 6 -2 11 -8 11 -5 0 -10 5 -10 11
0 6 9 4 22 -5 16 -12 26 -13 42 -4z m1041 -1 c-3 -6 -11 -11 -16 -11 -5 0 -4
6 3 14 14 16 24 13 13 -3z m232 4 c11 4 10 1 -4 -6 -24 -12 -53 -6 -53 11 0 7
6 8 19 0 11 -5 28 -8 38 -5z m1088 -3 c-3 -3 -11 0 -18 7 -9 10 -8 11 6 5 10
-3 15 -9 12 -12z m198 4 c4 -10 1 -13 -9 -9 -15 6 -19 23 -5 23 5 0 11 -7 14
-14z m47 3 c0 -5 4 -7 10 -4 6 3 7 -1 4 -9 -5 -14 -24 -23 -24 -12 0 2 -3 11
-6 20 -3 9 -1 16 5 16 6 0 11 -5 11 -11z m-2309 -16 c13 -16 12 -17 -3 -4 -10
7 -18 15 -18 17 0 8 8 3 21 -13z m1304 7 c-3 -5 -14 -10 -23 -10 -15 0 -15 2
-2 10 20 13 33 13 25 0z m935 -21 c0 -11 -38 2 -50 16 -10 11 -6 12 19 2 17
-6 31 -14 31 -18z m-1573 15 c-3 -3 -12 -4 -19 -1 -8 3 -5 6 6 6 11 1 17 -2
13 -5z m400 0 c-3 -3 -12 -4 -19 -1 -8 3 -5 6 6 6 11 1 17 -2 13 -5z m1367
-20 c3 -8 2 -12 -4 -9 -6 3 -10 10 -10 16 0 14 7 11 14 -7z m-234 -4 c18 -12
2 -12 -25 0 -13 6 -15 9 -5 9 8 0 22 -4 30 -9z m-2674 -17 c14 2 24 -1 24 -7
0 -6 -18 -11 -40 -11 -21 -1 -37 1 -35 4 3 2 -1 11 -8 19 -10 13 -9 14 12 3
13 -7 34 -11 47 -8z m133 3 c21 -12 22 -14 5 -20 -10 -4 -15 -4 -11 0 4 5 -3
14 -15 21 -13 7 -18 12 -13 12 6 0 21 -6 34 -13z m148 -2 c-3 -3 -12 -4 -19
-1 -8 3 -5 6 6 6 11 1 17 -2 13 -5z m2080 -8 c0 -8 -8 -11 -21 -8 -19 5 -19 6
0 13 10 4 19 8 20 8 0 1 1 -5 1 -13z m360 -1 c0 -17 -13 -20 -21 -6 -4 5 0 12
6 14 7 3 13 6 14 6 0 1 1 -6 1 -14z m182 -7 c8 -12 7 -19 -1 -24 -7 -4 -8 -3
-4 4 8 13 -35 27 -62 19 -10 -2 -19 1 -19 7 0 18 74 13 86 -6z m-2564 2 c3 -6
-1 -7 -9 -4 -18 7 -21 14 -7 14 6 0 13 -4 16 -10z m175 3 c-8 -3 -24 -10 -35
-15 -20 -9 -20 -9 -1 6 11 9 27 16 35 15 14 0 14 -1 1 -6z m2020 3 c0 -2 -7
-7 -16 -10 -8 -3 -12 -2 -9 4 6 10 25 14 25 6z m-2272 -13 c-10 -2 -26 -2 -35
0 -10 3 -2 5 17 5 19 0 27 -2 18 -5z m2350 0 c-10 -2 -26 -2 -35 0 -10 3 -2 5
17 5 19 0 27 -2 18 -5z m-2431 -9 c-3 -3 -12 -4 -19 -1 -8 3 -5 6 6 6 11 1 17
-2 13 -5z m2497 0 c22 -8 20 -21 -5 -34 -19 -10 -20 -10 -10 8 8 15 8 22 -2
25 -18 8 -2 8 17 1z m81 -4 c3 -6 -1 -7 -9 -4 -18 7 -21 14 -7 14 6 0 13 -4
16 -10z m-2684 -14 c-9 -11 -9 -15 1 -19 7 -2 9 -8 5 -13 -4 -5 -12 -2 -17 6
-7 12 -12 12 -28 -3 -10 -9 -25 -17 -32 -17 -7 0 7 13 31 30 49 33 57 36 40
16z m99 -7 c0 -5 -12 -6 -26 -3 -18 5 -25 3 -20 -4 3 -6 2 -13 -4 -17 -13 -8
-13 18 1 32 12 12 49 6 49 -8z m2562 1 c18 0 18 -1 3 -16 -18 -19 -20 -18 -29
16 -3 14 -3 19 0 13 3 -7 15 -13 26 -13z m-2072 0 c0 -5 -4 -10 -9 -10 -6 0
-13 5 -16 10 -3 6 1 10 9 10 9 0 16 -4 16 -10z m1540 0 c0 -5 -7 -10 -15 -10
-8 0 -15 5 -15 10 0 6 7 10 15 10 8 0 15 -4 15 -10z m65 0 c3 -6 -1 -7 -9 -4
-18 7 -21 14 -7 14 6 0 13 -4 16 -10z m345 0 c-8 -5 -19 -10 -25 -10 -5 0 -3
5 5 10 8 5 20 10 25 10 6 0 3 -5 -5 -10z m180 3 c0 -14 -19 -38 -25 -32 -8 8
5 39 16 39 5 0 9 -3 9 -7z m-2510 -28 c0 -12 -19 -12 -23 0 -4 9 -1 12 9 8 7
-3 14 -7 14 -8z m2553 -19 c-3 -4 -9 -2 -14 5 -13 22 -11 31 5 17 8 -7 12 -17
9 -22z m-2853 14 c0 -5 -2 -10 -4 -10 -3 0 -8 5 -11 10 -3 6 -1 10 4 10 6 0
11 -4 11 -10z m570 0 c0 -5 -2 -10 -4 -10 -3 0 -8 5 -11 10 -3 6 -1 10 4 10 6
0 11 -4 11 -10z m1755 0 c-3 -5 -10 -10 -16 -10 -5 0 -9 5 -9 10 0 6 7 10 16
10 8 0 12 -4 9 -10z m275 0 c0 -5 -4 -10 -10 -10 -5 0 -10 5 -10 10 0 6 5 10
10 10 6 0 10 -4 10 -10z m290 0 c0 -5 -5 -10 -11 -10 -5 0 -7 5 -4 10 3 6 8
10 11 10 2 0 4 -4 4 -10z m37 -12 c-3 -8 -6 -5 -6 6 -1 11 2 17 5 13 3 -3 4
-12 1 -19z m-61 -21 c16 6 17 5 6 -9 -10 -13 -17 -14 -37 -4 -14 6 -25 17 -25
25 0 11 4 11 19 -3 11 -10 25 -14 37 -9z m-2806 7 c0 -13 -34 -32 -47 -27 -21
8 -15 25 7 18 11 -4 20 -2 20 4 0 6 5 11 10 11 6 0 10 -3 10 -6z m295 -4 c3
-5 1 -10 -4 -10 -6 0 -11 5 -11 10 0 6 2 10 4 10 3 0 8 -4 11 -10z m160 0 c-3
-5 -11 -10 -16 -10 -6 0 -7 5 -4 10 3 6 11 10 16 10 6 0 7 -4 4 -10z m2035 0
c-8 -5 -19 -10 -25 -10 -5 0 -3 5 5 10 8 5 20 10 25 10 6 0 3 -5 -5 -10z m184
-24 c-4 -10 3 -16 23 -18 15 -2 24 -5 18 -8 -5 -3 -32 -3 -60 0 l-50 5 35 17
c43 21 41 21 34 4z m-2554 -11 c11 -13 6 -15 -36 -14 -27 1 -39 4 -26 6 12 2
22 9 22 14 0 14 26 11 40 -6z m-180 -6 c0 -5 5 -7 10 -4 12 8 13 -5 1 -24 -13
-21 -41 -6 -34 18 5 22 23 29 23 10z m2607 -3 c0 -8 -15 -21 -34 -30 -18 -9
-33 -11 -33 -6 0 6 6 10 13 10 8 0 22 9 32 20 22 24 22 24 22 6z m283 -1 c-9
-10 -9 -15 -1 -15 6 0 11 -4 11 -10 0 -15 -19 -12 -36 4 -12 13 -12 16 3 25
26 15 37 13 23 -4z m-2597 -9 c4 -10 1 -13 -9 -9 -7 3 -14 9 -14 14 0 14 17
10 23 -5z m287 5 c0 -5 -7 -12 -16 -15 -14 -5 -15 -4 -4 9 14 17 20 19 20 6z
m1740 -6 c7 -8 19 -15 26 -15 8 0 14 -4 14 -10 0 -5 -16 -2 -35 7 -19 9 -35
20 -35 25 0 13 17 9 30 -7z m-1692 -13 c6 -18 -15 -14 -22 4 -4 10 -1 14 6 12
6 -2 14 -10 16 -16z m-655 -25 c9 -3 17 -11 17 -17 0 -6 -4 -9 -9 -6 -5 4 -7
-3 -4 -14 3 -12 1 -20 -5 -18 -5 2 -19 -8 -31 -21 -12 -13 -24 -21 -28 -18 -3
4 4 16 17 27 22 19 23 35 5 85 -6 18 -5 18 7 4 7 -8 21 -18 31 -22z m2287 23
c0 -5 -4 -10 -10 -10 -5 0 -10 5 -10 10 0 6 5 10 10 10 6 0 10 -4 10 -10z
m673 -25 c-17 -35 -17 -35 12 -65 16 -17 23 -30 17 -30 -7 0 -12 5 -12 10 0 6
-7 10 -15 10 -8 0 -15 -4 -15 -10 0 -5 -5 -10 -12 -10 -9 0 -9 3 0 12 14 14
16 42 3 34 -5 -3 -11 4 -15 16 -4 17 2 29 22 45 15 12 28 22 29 23 2 0 -5 -16
-14 -35z m-2813 21 c0 -3 -4 -8 -10 -11 -5 -3 -10 -1 -10 4 0 6 5 11 10 11 6
0 10 -2 10 -4z m220 -6 c0 -5 -4 -10 -9 -10 -6 0 -13 5 -16 10 -3 6 1 10 9 10
9 0 16 -4 16 -10z m200 6 c0 -11 -19 -15 -25 -6 -3 5 1 10 9 10 9 0 16 -2 16
-4z m2117 -2 c-3 -3 -12 -4 -19 -1 -8 3 -5 6 6 6 11 1 17 -2 13 -5z m118 -4
c3 -5 1 -10 -4 -10 -6 0 -11 5 -11 10 0 6 2 10 4 10 3 0 8 -4 11 -10z m-2600
-30 c3 -5 1 -10 -4 -10 -6 0 -11 5 -11 10 0 6 2 10 4 10 3 0 8 -4 11 -10z
m140 0 c3 -5 -1 -10 -9 -10 -9 0 -16 5 -16 10 0 6 4 10 9 10 6 0 13 -4 16 -10z
m245 0 c0 -5 -4 -10 -10 -10 -5 0 -10 5 -10 10 0 6 5 10 10 10 6 0 10 -4 10
-10z m1780 0 c0 -5 -4 -10 -10 -10 -5 0 -10 5 -10 10 0 6 5 10 10 10 6 0 10
-4 10 -10z m240 0 c0 -5 -5 -10 -11 -10 -5 0 -7 5 -4 10 3 6 8 10 11 10 2 0 4
-4 4 -10z m135 0 c3 -5 1 -10 -4 -10 -6 0 -11 5 -11 10 0 6 2 10 4 10 3 0 8
-4 11 -10z m-2627 -29 c10 -6 7 -10 -12 -13 -25 -5 -33 1 -19 15 8 9 15 9 31
-2z m2742 -5 c0 -9 -8 -12 -26 -8 -19 3 -22 7 -12 13 20 13 38 11 38 -5z
m-617 -13 c-7 -2 -19 -2 -25 0 -7 3 -2 5 12 5 14 0 19 -2 13 -5z m-2152 -33
c5 0 9 -5 9 -11 0 -6 -7 -9 -15 -6 -20 8 -28 -8 -10 -23 21 -17 19 -42 -2 -38
-14 3 -18 14 -18 46 -1 32 3 41 13 37 7 -3 18 -5 23 -5z m273 -5 c3 -8 1 -15
-4 -15 -6 0 -10 7 -10 15 0 8 2 15 4 15 2 0 6 -7 10 -15z m193 -7 c-3 -8 -6
-5 -6 6 -1 11 2 17 5 13 3 -3 4 -12 1 -19z m1830 0 c-3 -8 -6 -5 -6 6 -1 11 2
17 5 13 3 -3 4 -12 1 -19z m480 5 c-9 -9 -20 -13 -24 -9 -4 4 -1 11 7 16 25
16 35 11 17 -7z m-277 -3 c0 -5 -4 -10 -10 -10 -5 0 -10 5 -10 10 0 6 5 10 10
10 6 0 10 -4 10 -10z m-2623 -82 c-2 -18 -4 -6 -4 27 0 33 2 48 4 33 2 -15 2
-42 0 -60z m2915 37 c-4 -30 -6 -33 -23 -24 -19 9 -19 11 -2 34 24 33 30 31
25 -10z m-2672 -35 c0 -5 -5 -10 -11 -10 -5 0 -7 5 -4 10 3 6 8 10 11 10 2 0
4 -4 4 -10z m2025 0 c3 -5 1 -10 -4 -10 -6 0 -11 5 -11 10 0 6 2 10 4 10 3 0
8 -4 11 -10z m-1955 -10 c0 -5 -4 -10 -10 -10 -5 0 -10 5 -10 10 0 6 5 10 10
10 6 0 10 -4 10 -10z m370 6 c0 -3 -4 -8 -10 -11 -5 -3 -10 -1 -10 4 0 6 5 11
10 11 6 0 10 -2 10 -4z m1660 0 c0 -3 -4 -8 -10 -11 -5 -3 -10 -1 -10 4 0 6 5
11 10 11 6 0 10 -2 10 -4z m360 -6 c0 -5 -4 -10 -10 -10 -5 0 -10 5 -10 10 0
6 5 10 10 10 6 0 10 -4 10 -10z m113 -5 c4 -8 2 -17 -3 -20 -6 -4 -10 3 -10
14 0 25 6 27 13 6z m-593 -15 c0 -5 -2 -10 -4 -10 -3 0 -8 5 -11 10 -3 6 -1
10 4 10 6 0 11 -4 11 -10z m-1778 -91 c-24 -9 -44 1 -38 18 3 8 6 21 6 29 0
10 9 5 24 -13 22 -25 22 -29 8 -34z m2025 20 c12 -15 11 -17 -9 -22 -24 -7
-53 12 -30 20 6 3 12 14 13 26 0 15 2 17 6 7 3 -8 12 -22 20 -31z m127 -1 c16
-11 -11 -27 -35 -21 -23 6 -25 19 -4 27 8 3 16 13 16 23 1 15 2 15 6 -2 3 -11
10 -23 17 -27z m-2530 23 c17 -6 17 -8 3 -14 -8 -3 -21 1 -27 9 -13 15 -6 17
24 5z m500 -13 c7 -29 -3 -39 -32 -32 -25 7 -30 24 -7 24 8 0 15 7 15 15 0 23
17 18 24 -7z m246 12 c0 -5 -4 -10 -10 -10 -5 0 -10 5 -10 10 0 6 5 10 10 10
6 0 10 -4 10 -10z m1400 1 c0 -5 -7 -11 -15 -15 -9 -3 -15 0 -15 9 0 8 7 15
15 15 8 0 15 -4 15 -9z m615 -1 c3 -5 1 -10 -4 -10 -6 0 -11 5 -11 10 0 6 2
10 4 10 3 0 8 -4 11 -10z m129 -5 c-7 -17 -20 -20 -29 -6 -3 5 3 12 12 14 10
3 19 5 20 6 1 0 0 -6 -3 -14z m-2934 -16 c0 -11 -4 -18 -10 -14 -5 3 -7 12 -3
20 7 21 13 19 13 -6z m215 1 c3 -6 -1 -7 -9 -4 -18 7 -21 14 -7 14 6 0 13 -4
16 -10z m520 0 c3 -5 -1 -10 -10 -10 -9 0 -13 5 -10 10 3 6 8 10 10 10 2 0 7
-4 10 -10z m1505 0 c0 -5 -2 -10 -4 -10 -3 0 -8 5 -11 10 -3 6 -1 10 4 10 6 0
11 -4 11 -10z m520 0 c0 -5 -4 -10 -10 -10 -5 0 -10 5 -10 10 0 6 5 10 10 10
6 0 10 -4 10 -10z m207 -12 c-3 -8 -6 -5 -6 6 -1 11 2 17 5 13 3 -3 4 -12 1
-19z m-2128 -55 c2 -1 -6 -1 -18 0 -11 1 -21 8 -21 15 0 12 3 12 18 1 9 -7 19
-14 21 -16z m2011 12 c11 -13 10 -14 -4 -9 -9 3 -16 10 -16 15 0 13 6 11 20
-6z m-2730 -5 c-8 -5 -19 -10 -25 -10 -5 0 -3 5 5 10 8 5 20 10 25 10 6 0 3
-5 -5 -10z m225 0 c-3 -5 -10 -10 -16 -10 -5 0 -9 5 -9 10 0 6 7 10 16 10 8 0
12 -4 9 -10z m265 0 c0 -5 -4 -10 -9 -10 -6 0 -13 5 -16 10 -3 6 1 10 9 10 9
0 16 -4 16 -10z m1540 6 c0 -2 -7 -7 -16 -10 -8 -3 -12 -2 -9 4 6 10 25 14 25
6z m215 -6 c-3 -5 -11 -10 -16 -10 -6 0 -7 5 -4 10 3 6 11 10 16 10 6 0 7 -4
4 -10z m270 0 c3 -5 2 -10 -4 -10 -5 0 -13 5 -16 10 -3 6 -2 10 4 10 5 0 13
-4 16 -10z m115 0 c0 -5 -5 -10 -11 -10 -5 0 -7 5 -4 10 3 6 8 10 11 10 2 0 4
-4 4 -10z m-1839 -16 c12 -14 11 -16 -5 -13 -11 2 -21 10 -24 17 -5 17 13 15
29 -4z m1154 -4 c-20 -22 -31 -20 -22 5 4 8 14 15 23 15 16 0 16 -2 -1 -20z
m-2035 -11 c0 -6 -4 -7 -10 -4 -5 3 -10 11 -10 16 0 6 5 7 10 4 6 -3 10 -11
10 -16z m2910 5 c0 -8 -5 -12 -10 -9 -6 4 -8 11 -5 16 9 14 15 11 15 -7z
m-2980 -3 c0 -5 3 -16 6 -25 3 -9 2 -16 -4 -16 -5 0 -12 11 -14 25 -3 14 -1
25 3 25 5 0 9 -4 9 -9z m2815 -1 c3 -5 1 -10 -4 -10 -6 0 -11 5 -11 10 0 6 2
10 4 10 3 0 8 -4 11 -10z m231 -27 c-11 -11 -19 6 -11 24 8 17 8 17 12 0 3
-10 2 -21 -1 -24z m-2196 3 c0 -3 -4 -8 -10 -11 -5 -3 -10 -1 -10 4 0 6 5 11
10 11 6 0 10 -2 10 -4z m2030 0 c0 -3 -4 -8 -10 -11 -5 -3 -10 -1 -10 4 0 6 5
11 10 11 6 0 10 -2 10 -4z m151 -49 c-10 -9 -11 -8 -5 6 3 10 9 15 12 12 3 -3
0 -11 -7 -18z m-2761 3 c0 -5 -5 -10 -11 -10 -5 0 -7 5 -4 10 3 6 8 10 11 10
2 0 4 -4 4 -10z m2027 -6 c-3 -3 -12 -4 -19 -1 -8 3 -5 6 6 6 11 1 17 -2 13
-5z m490 0 c-3 -3 -12 -4 -19 -1 -8 3 -5 6 6 6 11 1 17 -2 13 -5z m-2689 -10
c12 -4 22 -10 22 -15 0 -13 -23 -10 -44 6 -21 16 -15 18 22 9z m2866 -9 c-22
-16 -44 -19 -44 -6 0 9 21 18 49 20 10 1 9 -4 -5 -14z m-1974 -4 c0 -12 -20
-25 -27 -18 -7 7 6 27 18 27 5 0 9 -4 9 -9z m1086 -18 c-7 -7 -26 7 -26 19 0
6 6 6 15 -2 9 -7 13 -15 11 -17z m-2019 -8 c8 -9 13 -19 10 -22 -6 -5 -37 21
-37 31 0 10 11 6 27 -9z m829 -12 c-7 -7 -26 7 -26 19 0 6 6 6 15 -2 9 -7 13
-15 11 -17z m2124 17 c0 -5 -4 -10 -10 -10 -5 0 -10 5 -10 10 0 6 5 10 10 10
6 0 10 -4 10 -10z m-2090 -21 c0 -6 -4 -7 -10 -4 -5 3 -10 11 -10 16 0 6 5 7
10 4 6 -3 10 -11 10 -16z m1242 5 c-9 -7 -19 -8 -20 -3 -2 5 -8 7 -13 3 -5 -3
-9 -1 -9 4 0 5 13 9 30 9 26 0 27 -2 12 -13z m818 -3 c0 -5 -7 -11 -14 -14
-10 -4 -13 -1 -9 9 6 15 23 19 23 5z m-2893 -48 c-3 -10 -5 -4 -5 12 0 17 2
24 5 18 2 -7 2 -21 0 -30z m853 17 c0 -12 -35 -31 -44 -23 -11 11 -6 21 12 26
29 8 32 7 32 -3z m1180 1 c0 -6 -4 -13 -10 -16 -5 -3 -10 1 -10 9 0 9 5 16 10
16 6 0 10 -4 10 -9z m11 -34 c-8 -8 -11 -7 -11 4 0 20 13 34 18 19 3 -7 -1
-17 -7 -23z m-1251 3 c0 -5 -5 -10 -11 -10 -5 0 -7 5 -4 10 3 6 8 10 11 10 2
0 4 -4 4 -10z m107 -12 c-3 -8 -6 -5 -6 6 -1 11 2 17 5 13 3 -3 4 -12 1 -19z
m1186 8 c4 -10 1 -13 -8 -9 -8 3 -12 9 -9 14 7 12 11 11 17 -5z m-113 -4 c0
-5 -6 -17 -14 -27 -13 -18 -14 -18 -9 8 5 24 23 39 23 19z m-2073 -49 c-3 -10
-5 -2 -5 17 0 19 2 27 5 18 2 -10 2 -26 0 -35z m143 32 c0 -9 -6 -12 -16 -8
-13 5 -13 7 -2 14 17 11 18 11 18 -6z m803 -22 c-7 -3 -13 -11 -13 -19 0 -8 6
-11 15 -8 8 4 15 1 15 -5 0 -6 -4 -11 -10 -11 -5 0 -10 -10 -11 -22 0 -13 -7
-1 -14 27 -11 38 -11 51 -2 57 6 4 16 2 22 -4 7 -7 6 -12 -2 -15z m1195 4 c2
-12 -1 -15 -12 -11 -9 3 -16 1 -16 -5 0 -6 4 -11 9 -11 5 0 9 -13 9 -30 -1
-33 -18 -42 -18 -10 0 11 -4 20 -9 20 -8 0 -6 22 5 58 5 18 28 10 32 -11z
m792 13 c0 -5 -4 -10 -10 -10 -5 0 -10 5 -10 10 0 6 5 10 10 10 6 0 10 -4 10
-10z m-2903 -32 c-3 -7 -5 -2 -5 12 0 14 2 19 5 13 2 -7 2 -19 0 -25z m2015
-37 c2 -17 1 -28 -4 -25 -8 5 -12 54 -4 54 2 0 6 -13 8 -29z m-1158 -86 c-4
-8 -16 -15 -28 -15 -20 1 -20 1 4 15 31 18 30 18 24 0z m1320 -1 c9 -3 16 -10
16 -14 0 -10 -38 -1 -46 11 -6 10 7 12 30 3z m-137 -46 c-3 -8 -6 -5 -6 6 -1
11 2 17 5 13 3 -3 4 -12 1 -19z m-1127 -68 c0 -9 -51 -40 -66 -40 -5 0 54 46
64 49 1 1 2 -3 2 -9z m1235 -30 c3 -6 -1 -7 -9 -4 -18 7 -21 14 -7 14 6 0 13
-4 16 -10z m60 -30 c3 -6 -1 -7 -9 -4 -18 7 -21 14 -7 14 6 0 13 -4 16 -10z
m-1464 -53 c-10 -9 -11 -8 -5 6 3 10 9 15 12 12 3 -3 0 -11 -7 -18z m-40 -58
c-9 -22 -10 -22 -10 -3 -1 11 2 24 6 27 12 12 14 0 4 -24z m1607 2 c4 -28 -13
-20 -21 9 -3 14 -1 20 6 17 7 -2 14 -14 15 -26z"/>
<path d="M2375 2509 c-4 -6 -1 -15 6 -20 21 -13 31 -11 27 8 -4 20 -24 28 -33
12z"/>
</g>
</svg>
